<?xml version="1.0" encoding="utf-8"?>
<!-- Generator: Adobe Illustrator 18.0.0, SVG Export Plug-In . SVG Version: 6.00 Build 0)  -->
<!DOCTYPE svg PUBLIC "-//W3C//DTD SVG 1.1//EN" "http://www.w3.org/Graphics/SVG/1.1/DTD/svg11.dtd">
<svg version="1.1" id="Layer_1" xmlns="http://www.w3.org/2000/svg" xmlns:xlink="http://www.w3.org/1999/xlink" x="0px" y="0px"
	 viewBox="0 0 61.8 52.2" enable-background="new 0 0 61.8 52.2" xml:space="preserve">
<g>
	<path fill="#919090" d="M26.1,27.8c1.2,0.3,1.5,1,1.8,2.1c0.1,0.4,0.3,1.6,0.9,1.6c0,0-13.9,0-13.9,0l0.6,3.4c0,0,0.2,1.3,1.8,1.1
		l14.5,0c0,0,4.8,4,6.9,4.4H15.9c0,0-3.5,0.3-4.1-3.7c0,0-4.9-27.7-4.9-27.7C6.7,8.5,6.7,8.1,6.5,7.6C6.4,7.3,6.2,6.9,6,6.6
		C5.7,6.2,5.3,5.9,4.9,5.7C4.5,5.5,4.1,5.3,3.7,5.1C3.3,4.9,2.8,4.7,2.4,4.5c-0.6-0.3-1.4-0.5-1.9-1C0.3,3.2,0,2.8,0,2.2
		C0,1.7,0.1,1,0.5,0.6C1.2-0.1,2.2-0.2,3,0.2c1,0.5,2.1,1,3.1,1.5C6.7,2,7.3,2.2,7.9,2.5c0.2,0.1,0.5,0.2,0.7,0.4
		c0.4,0.3,0.7,0.7,1,1.1c0.8,1.3,1.2,2.8,1.3,4.3h23.6l-4.6,3.9c0,0-18.6,0-18.6,0c0.7,4.4,1.5,8.8,2.1,13.2
		c0.3,1.9,1.3,2.5,3.1,2.7"/>
	<circle fill="#FFFFFF" cx="43.8" cy="23.6" r="18.1"/>
	<circle fill="#919090" cx="43.8" cy="23.6" r="12.7"/>
	<circle fill="#F5F6F6" cx="43.8" cy="23.6" r="9.4"/>
	<g>
		<circle fill="#FFFFFF" cx="34.7" cy="47.3" r="4.9"/>
		<circle fill="#CF4447" cx="34.7" cy="47.3" r="3.3"/>
	</g>
	<g>
		<circle fill="#FFFFFF" cx="20.8" cy="47.3" r="4.9"/>
		<circle fill="#CF4447" cx="20.8" cy="47.3" r="3.3"/>
	</g>
	<polyline fill="#D14B4E" points="46.9,22.1 48.9,20.1 48.9,20.1 48.6,17.9 46.4,17.7 46.4,17.7 41.4,22.8 43.8,25.2 46.9,22.1 	"/>
</g>
</svg>
