<?xml version="1.0" encoding="utf-8"?>
<!-- Generator: Adobe Illustrator 18.0.0, SVG Export Plug-In . SVG Version: 6.00 Build 0)  -->
<!DOCTYPE svg PUBLIC "-//W3C//DTD SVG 1.1//EN" "http://www.w3.org/Graphics/SVG/1.1/DTD/svg11.dtd">
<svg version="1.1" id="Layer_1" xmlns="http://www.w3.org/2000/svg" xmlns:xlink="http://www.w3.org/1999/xlink" x="0px" y="0px"
	 viewBox="0 0 36 38.4" enable-background="new 0 0 36 38.4" xml:space="preserve">
<g>
	<path fill="#CF4447" d="M34.3,5.7H7.4C7,2.1,5.2,1.6,5.2,1.6L1.5,0C-1,0.3,0.3,2.4,0.3,2.4l3,1.5c0.9,0.4,1.2,1.6,1.2,1.6l3.6,20.3
		c0.7,2.3,2.8,2.1,2.8,2.1l22.1,0c0.4-0.1,0.4-0.4,0.4-0.4l0-2.1c0-0.5-0.5-0.5-0.5-0.5l-21,0c-1.1,0.1-1.3-1-1.3-1l-0.3-2.1l22.1,0
		c1.2-0.2,1.3-1.2,1.3-1.2L35.9,8C36.4,5.6,34.3,5.7,34.3,5.7z M33.1,9.7l-1.7,8.1c0,0-0.3,1.2-1.3,1.1H11.6c0,0-1.2,0.1-1.4-1.2
		L8.4,9.5c0,0-0.3-1,0.7-1h23.2C32.3,8.6,33.3,8.6,33.1,9.7z"/>
	<path fill="#CF4447" d="M16.6,38.4h-2.3c-1.3,0-2.3-1-2.3-2.3v-2c0-1.3,1-2.3,2.3-2.3h2.3c1.3,0,2.3,1,2.3,2.3v2
		C18.9,37.3,17.9,38.4,16.6,38.4z"/>
	<path fill="#CF4447" d="M27.5,38.4h-2.3c-1.3,0-2.3-1-2.3-2.3v-2c0-1.3,1-2.3,2.3-2.3h2.3c1.3,0,2.3,1,2.3,2.3v2
		C29.8,37.3,28.7,38.4,27.5,38.4z"/>
</g>
</svg>
