<svg xmlns="http://www.w3.org/2000/svg" width="56" height="60" viewBox="0 0 56 60">
    <defs>
        <path id="a" d="M0 .261h12.946v9.336H0z"/>
    </defs>
    <g fill="none" fill-rule="evenodd">
        <path fill="#172832" d="M25.543 22.087c-1.518.619-3.006.033-3.08.002-.491-.203-1.095-.047-1.35.352-.256.4-.063.893.43 1.1.064.028 1.111.459 2.524.459.723 0 1.544-.114 2.379-.453.496-.202.696-.693.447-1.096-.25-.403-.853-.566-1.35-.364M37.544 22.087c-1.519.619-3.007.033-3.08.002-.492-.203-1.096-.047-1.35.352-.257.4-.064.893.43 1.1.063.028 1.11.459 2.522.459.724 0 1.545-.114 2.38-.453.496-.202.696-.693.447-1.096-.25-.403-.853-.566-1.35-.364"/>
        <path fill="#CF4347" d="M6.5 41c1.93 0 3.5 1.526 3.5 3.402v4.72c0 1.553-1.078 2.866-2.545 3.272v5.677a.942.942 0 0 1-.954.929.94.94 0 0 1-.955-.929v-5.677C4.079 51.988 3 50.675 3 49.122v-4.72C3 42.526 4.57 41 6.5 41zm0 1.855c-.878 0-1.591.693-1.591 1.547v4.72c0 .852.713 1.545 1.592 1.545.877 0 1.59-.693 1.59-1.545v-4.72c0-.854-.713-1.547-1.59-1.547z"/>
        <path fill="#172832" d="M6.5 38C2.916 38 0 40.8 0 44.24v1.856c0 .5.422.904.942.904s.942-.405.942-.904V44.24c0-2.444 2.07-4.432 4.616-4.432s4.616 1.988 4.616 4.432v1.856c0 .5.422.904.942.904s.942-.405.942-.904V44.24C13 40.8 10.084 38 6.5 38"/>
        <path fill="#CF4347" d="M32.084 31.309c-1.33 1.048-2.79.294-2.862.254-.484-.264-1.025.018-1.21.636-.186.617.058 1.34.544 1.609a4.52 4.52 0 0 0 2.406.48 3.999 3.999 0 0 0 2.152-.871c.435-.342.557-1.092.272-1.674-.284-.582-.867-.776-1.302-.434"/>
        <path fill="#172832" d="M48.641 33.026c-1.643-.726-2.788-2.475-3.406-5.196v-9.867c0-.266-.04-5.688-3.84-9.467a11.194 11.194 0 0 0-3.23-2.234c.088-.646.367-1.74 1.251-2.652 1.118-1.15 2.895-1.734 5.285-1.734 2.073 0 3.777.834 5.063 2.477 2.849 3.641 3.361 10.746 1.34 18.543-1.26 4.862-1.06 8.227.597 10.001.128.138.261.262.396.371-1.058.218-2.31.263-3.456-.242zm-7.256 1.02c-2.12 3.263-5.305 5.057-9.465 5.333h-.176c-4.135-.274-7.307-2.048-9.427-5.276-1.481-2.253-1.927-4.483-1.996-4.867V18.962c1.214.058 3.363.069 5.896-.318 4.593-.704 8.498-2.444 11.39-5.06a10.756 10.756 0 0 0 5.734 5.043V29.237c-.065.383-.496 2.56-1.956 4.809zm-6.411 9.959a.84.84 0 0 0-.006.102c0 1.717-1.41 3.114-3.142 3.114-1.712 0-3.108-1.365-3.139-3.054.001-.021.003-.041.003-.063v-3.31c.905.229 1.89.389 2.962.459l.061.002h.237l.062-.002c1.072-.07 2.057-.23 2.962-.459v3.211zm6.222 1.038l-7.482 13.081H29.94l-7.483-13.081h4.425a5.026 5.026 0 0 0 4.151 3.992 1.034 1.034 0 0 0-.26.686 1.05 1.05 0 0 0 1.053 1.046 1.05 1.05 0 0 0 1.054-1.046c0-.262-.098-.502-.26-.686 2.09-.329 3.757-1.941 4.15-3.992h4.426zm8.903 11.158v1.923h-3.784V46.728c.28.209.556.442.824.706 1.964 1.934 2.96 4.883 2.96 8.767zm-6.862-10.922c.36.09.762.215 1.186.386v12.459H35.89l7.347-12.845zM13.565 56.201c0-5.212 1.818-7.989 3.772-9.47v11.393h-3.772v-1.923zm6.85-10.926l7.348 12.849H19.23V45.659a8.788 8.788 0 0 1 1.184-.384zm1.462-32.891c1.94-3.652 5.3-5.504 9.984-5.504 1.88 0 3.545.288 4.987.857l.012.005c2.199.871 3.879 2.401 5.017 4.581.806 1.544 1.169 3.109 1.332 4.198-3.39-1.672-4.332-4.694-4.374-4.834a.938.938 0 0 0-.69-.653.952.952 0 0 0-.914.276c-5.376 5.769-14.017 5.899-16.828 5.773.138-1.047.504-2.875 1.474-4.699zm34.067 20.492a.943.943 0 0 0-1.049-.606c-.043.008-1.077.152-1.822-.666-1.54-1.687-.746-5.888-.136-8.242C55.1 15.016 54.46 7.292 51.26 3.203 49.62 1.108 47.352 0 44.7 0c-2.943 0-5.188.786-6.674 2.337-1.05 1.094-1.487 2.342-1.668 3.258-1.364-.391-2.864-.591-4.498-.591-6.78 0-10.082 3.538-11.659 6.505-1.68 3.162-1.769 6.289-1.773 6.421v11.383c0 .045.003.089.01.134.016.114.427 2.811 2.249 5.614 1.168 1.799 3.086 3.872 6.122 5.116a.982.982 0 0 0-.013.146v2.844h-4.735c-.158.002-3.894.005-6.871 2.935-2.335 2.299-3.52 5.696-3.52 10.099v1.923H.946a.942.942 0 0 0-.946.937c0 .519.424.939.946.939h53.185c.523 0 .947-.42.947-.939a.942.942 0 0 0-.947-.937h-2.139v-1.923c0-4.403-1.184-7.8-3.52-10.099-2.976-2.929-6.71-2.934-6.865-2.935h-4.74v-2.844a.982.982 0 0 0-.013-.146c3.035-1.243 4.955-3.317 6.123-5.116a15.99 15.99 0 0 0 1.661-3.401c.817 1.462 1.9 2.495 3.246 3.085.922.404 1.869.555 2.769.555 2.563 0 4.745-1.22 4.868-1.291a.935.935 0 0 0 .423-1.133z"/>
    </g>
</svg>
