<svg xmlns="http://www.w3.org/2000/svg" width="58" height="60" viewBox="0 0 58 60">
    <g fill="none" fill-rule="nonzero">
        <path fill="#000" d="M13.496 21.768a2.57 2.57 0 0 0-3.602.443.88.88 0 0 0 1.385 1.082.81.81 0 0 1 1.135-.14.879.879 0 0 0 1.082-1.385zM22.52 20.66a2.57 2.57 0 0 0-3.603.443.879.879 0 0 0 1.385 1.082.81.81 0 0 1 1.135-.14.88.88 0 0 0 1.082-1.384zM21.504 27.417l-.1-.817a1.324 1.324 0 0 0-.503-.888c-.28-.22-.63-.316-.983-.273l-5.047.62a1.324 1.324 0 0 0-.888.502c-.219.28-.316.63-.272.983l.1.817a3.88 3.88 0 0 0 4.319 3.374 3.88 3.88 0 0 0 3.374-4.318zm-3.589 2.573a2.12 2.12 0 0 1-2.36-1.843l-.048-.395 4.203-.516.049.395a2.12 2.12 0 0 1-1.844 2.36z"/>
        <path fill="#000" d="M27.855 4.052c-.863-1.849-2.33-3.228-4.245-3.99a.879.879 0 0 0-1.107.415c-.945 1.84-3.23 3.15-6.11 3.504l-5.083.624a.879.879 0 1 0 .215 1.745l5.082-.624c3.093-.38 5.65-1.749 7.023-3.72 2.864 1.53 3.56 4.735 3.249 7.146-.323 2.506-1.64 4.39-3.204 4.582l-17.1 2.1a2.597 2.597 0 0 0-2.259 2.89l.21 1.711-1.332.164L1.86 9.725a2.158 2.158 0 0 1 .444-1.602 2.158 2.158 0 0 1 1.447-.818l4.266-.524a.879.879 0 0 0-.214-1.745l-4.266.524A3.934 3.934 0 0 0 .115 9.94l1.38 11.239A3.042 3.042 0 0 0 .24 24.023a3.04 3.04 0 0 0 3.386 2.644l1.64-.202.16 1.31A10.284 10.284 0 0 0 9.33 34.67a10.271 10.271 0 0 0 7.633 2.117A10.293 10.293 0 0 0 20.7 35.58a10.3 10.3 0 0 0 2.928-2.41.879.879 0 1 0-1.347-1.13 8.552 8.552 0 0 1-5.533 3.003 8.535 8.535 0 0 1-6.337-1.758 8.538 8.538 0 0 1-3.238-5.725l-.269-2.182a.88.88 0 0 0-.98-.765l-2.508.31a1.28 1.28 0 0 1-.646-2.455l.003-.002c.103-.042.214-.07.327-.085l2.513-.308a.879.879 0 0 0 .765-.98l-.317-2.584a.837.837 0 0 1 .727-.931l16.229-1.993 1.213 9.881a8.508 8.508 0 0 1-.382 3.789.879.879 0 1 0 1.665.561 10.25 10.25 0 0 0 .462-4.564l-1.226-9.978c1.984-.707 3.494-2.955 3.873-5.897.24-1.86-.033-3.751-.767-5.325zM48.23 45.344a2.57 2.57 0 0 0-3.602-.442.879.879 0 1 0 1.083 1.385.81.81 0 0 1 1.134.14.877.877 0 0 0 1.234.15.879.879 0 0 0 .151-1.233zM39.208 44.237a2.569 2.569 0 0 0-3.602-.443.879.879 0 1 0 1.082 1.385.81.81 0 0 1 1.135.14.877.877 0 0 0 1.233.151.879.879 0 0 0 .152-1.233zM43.254 49.193l-5.048-.62a1.326 1.326 0 0 0-.982.273c-.631.493-.484 1.156-.603 1.704-.422 3.442 3.541 5.629 6.232 3.526 1.618-1.263 1.455-3.006 1.561-3.398.09-.73-.43-1.395-1.16-1.485zm-1.483 3.498a2.116 2.116 0 0 1-3.405-1.926l.048-.395 4.204.516c-.052.186.026 1.123-.847 1.805z"/>
        <path fill="#000" d="M57.206 30.174a3.904 3.904 0 0 0-2.617-1.48L42.512 27.21c-.451-.056-.863-.3-1.131-.673a7.647 7.647 0 0 0-3.29-2.603.879.879 0 0 0-.67 1.625 5.89 5.89 0 0 1 2.534 2.006 3.41 3.41 0 0 0 2.342 1.39l12.077 1.482a2.174 2.174 0 0 1 1.891 2.42L54.93 43.734l-1.332-.164.21-1.712a2.597 2.597 0 0 0-2.258-2.89l-17.1-2.1a5.85 5.85 0 0 1-4-2.314 5.856 5.856 0 0 1-1.103-4.492c.418-2.576 2.526-4.593 5.125-4.906a.879.879 0 1 0-.21-1.745c-3.372.405-6.107 3.025-6.65 6.37a7.6 7.6 0 0 0 1.432 5.828 7.582 7.582 0 0 0 4.325 2.846l-1.22 9.932a10.299 10.299 0 0 0 .268 3.92.88.88 0 0 0 1.7-.451 8.55 8.55 0 0 1-.223-3.255l1.214-9.88 16.228 1.992a.837.837 0 0 1 .728.931l-.318 2.584a.88.88 0 0 0 .766.98l2.512.308c.107.013.21.04.309.079a1.28 1.28 0 1 1-.62 2.462l-2.513-.309a.879.879 0 0 0-.98.765l-.268 2.182a8.538 8.538 0 0 1-3.239 5.725 8.533 8.533 0 0 1-6.337 1.758 8.566 8.566 0 0 1-5.88-3.444.879.879 0 0 0-1.417 1.04 10.315 10.315 0 0 0 3.048 2.77 10.268 10.268 0 0 0 4.035 1.378 10.272 10.272 0 0 0 7.633-2.117 10.284 10.284 0 0 0 3.902-6.895l.16-1.31c1.57.186 1.692.225 2.014.225a3.04 3.04 0 0 0 1.76-5.515l1.379-11.236a3.903 3.903 0 0 0-.804-2.899z"/>
        <path fill="#CF4347" d="M44.764 7.373a.879.879 0 0 0-.88.879v2.151a.879.879 0 0 0 1.758 0V8.252a.879.879 0 0 0-.878-.88zM44.764 13.986a.879.879 0 0 0-.88.88v2.15a.879.879 0 0 0 1.758 0v-2.15a.879.879 0 0 0-.878-.88zM49.146 11.755h-2.151a.879.879 0 0 0 0 1.758h2.151a.879.879 0 0 0 0-1.758zM42.532 11.755h-2.15a.879.879 0 0 0 0 1.758h2.15a.879.879 0 0 0 0-1.758zM13.361 42.104a.879.879 0 0 0-.879.879v2.151a.879.879 0 0 0 1.758 0v-2.151a.879.879 0 0 0-.879-.88zM13.361 48.718a.879.879 0 0 0-.879.878v2.152a.879.879 0 0 0 1.758 0v-2.152a.879.879 0 0 0-.879-.878zM17.744 46.486h-2.152a.879.879 0 0 0 0 1.758h2.152a.879.879 0 0 0 0-1.758zM11.13 46.486H8.98a.879.879 0 0 0 0 1.758h2.151a.879.879 0 1 0 0-1.758z"/>
    </g>
</svg>
