<svg xmlns="http://www.w3.org/2000/svg" width="66" height="62" viewBox="0 0 66 62">
    <g fill="none" fill-rule="nonzero" stroke="#FFF" stroke-width=".5">
        <path fill="#172832" d="M43.738 26.276c.531 0 1.01-.32 1.212-.811a1.317 1.317 0 0 0-.284-1.433 1.31 1.31 0 0 0-2.24.93 1.287 1.287 0 0 0 1.312 1.314zM10.183 8.514a1.281 1.281 0 0 0 1.312-1.315c0-.752-.562-1.127-1.312-1.127a1.254 1.254 0 0 0-1.312 1.127 1.41 1.41 0 0 0 1.312 1.315z"/>
        <path fill="#172832" d="M15.873 42.132l1.882.755a5.574 5.574 0 0 0 4.894 0l1.882-.755c.872-.326 1.696-.77 2.448-1.321a24.355 24.355 0 0 0 14.684 18.868l1.882.754a5.574 5.574 0 0 0 4.895 0l1.881-.754C59.231 55.952 65.077 47.275 65.2 37.6V22.32a3.78 3.78 0 0 0-3.764-3.77h-21.84V4.77A3.78 3.78 0 0 0 35.83 1H4.763A3.78 3.78 0 0 0 1 4.771v15.283c.122 9.673 5.966 18.35 14.873 22.078zm47.066-19.623v15.283c0 8.302-5.46 16.227-13.367 19.811l-1.881.755a4.149 4.149 0 0 1-3.013 0l-1.881-.755C35.264 54.4 29.993 47.227 29.428 39.491a21.549 21.549 0 0 0 4.704-4.528 6.467 6.467 0 0 0 3.954 1.509 6.57 6.57 0 0 0 4.142-1.51 1.21 1.21 0 0 0-.315-2.068 1.203 1.203 0 0 0-1.191.183 3.96 3.96 0 0 1-2.448.943 3.575 3.575 0 0 1-2.448-.943 23.268 23.268 0 0 0 3.763-11.698h22.22c.566-.19 1.13.376 1.13 1.13zM3.448 4.771a1.287 1.287 0 0 1 1.315-1.318H35.83a1.281 1.281 0 0 1 1.318 1.318v15.283c-.121 8.683-5.372 16.466-13.367 19.814l-2.07.755a4.149 4.149 0 0 1-3.013 0l-1.881-.755C8.906 36.472 3.448 28.547 3.448 20.057V4.77z"/>
        <path fill="#172832" d="M27.866 23.851H12.873a1.281 1.281 0 0 0-1.312 1.315c0 4.876 3.944 8.829 8.809 8.829 4.865 0 8.81-3.953 8.81-8.829a1.58 1.58 0 0 0-1.314-1.315zm-7.684 7.513a6.424 6.424 0 0 1-6.185-5.071h12.37a6.267 6.267 0 0 1-6.185 5.071z"/>
        <path fill="#DE4F4D" d="M12.62 16.087a3.559 3.559 0 0 1 2.436.943c.518.415 1.273.331 1.687-.187a1.204 1.204 0 0 0-.187-1.69 5.685 5.685 0 0 0-3.936-1.508 6.54 6.54 0 0 0-4.124 1.503 1.256 1.256 0 0 0 0 1.878 1.21 1.21 0 0 0 1.687.188 3.296 3.296 0 0 1 2.437-1.127zM23.606 15.148a1.204 1.204 0 0 0-.187 1.69c.414.519 1.17.603 1.687.188a5.569 5.569 0 0 1 2.81-.943 3.559 3.559 0 0 1 2.437.943c.518.415 1.273.33 1.687-.188a1.204 1.204 0 0 0-.187-1.69 6.54 6.54 0 0 0-4.123-1.503c-1.5.043-2.947.57-4.124 1.503z"/>
        <path fill="#172832" d="M15.325 8.514h14.993a1.281 1.281 0 0 0 1.313-1.315c0-.752-.562-1.127-1.312-1.127H15.325a1.254 1.254 0 0 0-1.312 1.127 1.41 1.41 0 0 0 1.312 1.315zM37.397 50.243a1.287 1.287 0 0 0 1.312 1.315h14.993a1.281 1.281 0 0 0 1.314-1.315c0-4.876-3.944-8.829-8.81-8.829-4.865 0-8.809 3.953-8.809 8.829zm8.81-6.198a6.424 6.424 0 0 1 6.184 5.072h-12.37a6.388 6.388 0 0 1 6.186-5.073z"/>
        <path fill="#DE4F4D" d="M56.39 32.895a3.942 3.942 0 0 1-2.436.943 3.559 3.559 0 0 1-2.437-.943 1.198 1.198 0 0 0-1.687.188 1.204 1.204 0 0 0 .188 1.69 6.408 6.408 0 0 0 8.246 0 1.209 1.209 0 0 0 .187-1.69 1.716 1.716 0 0 0-2.06-.188z"/>
        <path fill="#172832" d="M48.894 26.276h7.497c.725 0 1.312-.588 1.312-1.315 0-.726-.587-1.314-1.312-1.314h-7.497c-.725 0-1.312.588-1.312 1.314 0 .727.587 1.315 1.312 1.315z"/>
    </g>
</svg>
