<svg xmlns="http://www.w3.org/2000/svg" width="61" height="60" viewBox="0 0 61 60">
    <g fill="none" fill-rule="nonzero">
        <ellipse cx="15.901" cy="21.955" fill="#DE4F4D" rx="1.144" ry="1.141"/>
        <path fill="#172832" d="M58.612 39.214a.708.708 0 0 0-.299-.1c-.435.023-.837.24-1.093.592-.253.477-.405 1-.448 1.538a18.923 18.923 0 0 1-7.71 12.448c-4.275 3.026-10.988 4.663-15.91 2.381a9.1 9.1 0 0 1-3.829-3.273S14.758 31.874 14.708 31.825a2.494 2.494 0 0 1 .447-3.224c1.044-.943 3.033-1.29 3.982 0l7.26 10.811c.211.313.566.499.944.496.232.011.46-.059.646-.198.262-.169.442-.438.497-.744a1.035 1.035 0 0 0-.199-.845L19.73 25.575a1.133 1.133 0 0 0-.945-.496c-.232-.01-.46.06-.646.199a.598.598 0 0 0-.248.247c-.248.298-1.492.05-1.84.15a4.817 4.817 0 0 0-2.485 1.289 4.846 4.846 0 0 0-.796 6.249l9.347 13.39c3.281 4.662 6.116 10.613 11.983 12.3 3.245.82 6.655.717 9.845-.297C49.662 56.969 54.883 53 57.32 47.546a28.448 28.448 0 0 0 1.79-6.398c.099-.743.099-1.637-.497-1.934h-.001z"/>
        <path fill="#172832" d="M60.352 20.764a5.038 5.038 0 0 0-1.39-3.471 5.162 5.162 0 0 0-3.382-1.587h-.346a5.108 5.108 0 0 0-5.075 4.661l-1.144 6.693-12.58-18.297a4.81 4.81 0 0 0-3.927-1.985 5.87 5.87 0 0 0-2.238.496 5.33 5.33 0 0 0-2.535 2.58 8.716 8.716 0 0 0-1.44-1.835 5.093 5.093 0 0 0-6.713.347 4.906 4.906 0 0 0-.796 6.25l.647.892c-.991.049-1.944.393-2.737.989a1.175 1.175 0 0 0-.447.743c-.06.297.012.606.199.845.212.313.566.499.945.496.232.011.46-.06.646-.198a2.984 2.984 0 0 1 1.79-.592 2.12 2.12 0 0 1 1.74.744l9.943 14.779c.212.312.566.498.944.496.232.01.46-.06.647-.199.262-.169.442-.438.497-.744a1.035 1.035 0 0 0-.2-.845L20.626 13.275a2.494 2.494 0 0 1 .447-3.224c1.044-.992 3.033-1.29 3.982.05l12.177 17.954c.212.312.567.498.945.496.232.01.46-.06.646-.199.262-.168.442-.438.498-.744a1.035 1.035 0 0 0-.2-.845s-9.247-13.735-9.297-13.785a2.984 2.984 0 0 1-.298-1.141 2.854 2.854 0 0 1 1.74-2.48 2.585 2.585 0 0 1 1.194-.247 2.413 2.413 0 0 1 2.038.992L48.47 30.336l-.448 2.331c-.053.29 0 .59.15.845.168.261.438.44.745.496h.2a1.212 1.212 0 0 0 1.143-.942l2.187-12.5a2.809 2.809 0 0 1 2.788-2.58h.199a2.78 2.78 0 0 1 2.635 2.778c0 .05 0 7.34-.1 9.275a1.097 1.097 0 0 0 1.094 1.19h.05a1.185 1.185 0 0 0 1.144-1.09c.1-1.985.15-4.018.15-6.051 0-1.736-.05-3.273-.05-3.323h-.004z"/>
        <ellipse cx="58.761" cy="35.246" fill="#DE4F4D" rx="1.144" ry="1.141"/>
        <path fill="#DE4F4D" d="M39.735 6.878a18.175 18.175 0 0 1 6.414 8.282c.105.214.258.4.447.546.186.139.415.209.647.198a.939.939 0 0 0 .398-.099 1.134 1.134 0 0 0 .646-1.488 21.259 21.259 0 0 0-2.934-5.155 20.002 20.002 0 0 0-4.325-4.116.725.725 0 0 0-.593-.248c-.373.02-.718.202-.945.496-.187.24-.26.548-.2.845.05.296.21.562.448.744l-.003-.005z"/>
        <path fill="#172832" d="M43 2.083a23.056 23.056 0 0 1 8.553 11.11c.167.455.607.754 1.093.743.135.008.27-.009.398-.05.584-.212.892-.848.696-1.436A25.29 25.29 0 0 0 44.344.199 1.358 1.358 0 0 0 43.647 0a1.133 1.133 0 0 0-.944.496 1.26 1.26 0 0 0-.2.845c.056.305.236.574.498.742z"/>
        <path fill="#DE4F4D" d="M7.712 30.072a1.164 1.164 0 0 0-1.093-.893.374.374 0 0 0-.249.05 1.152 1.152 0 0 0-.847 1.389 20.536 20.536 0 0 0 2.188 5.554 20.866 20.866 0 0 0 3.682 4.663c.216.198.501.305.795.297.313-.018.612-.14.847-.347.2-.216.307-.5.299-.794-.01-.299-.135-.583-.349-.793a18.692 18.692 0 0 1-5.27-9.127h-.003z"/>
        <path fill="#172832" d="M9.42 43.695a22.573 22.573 0 0 1-7.11-12.101 1.098 1.098 0 0 0-.399-.645 1.193 1.193 0 0 0-.994-.199 1.028 1.028 0 0 0-.697.496c-.149.255-.202.555-.149.846a24.286 24.286 0 0 0 2.88 7.29 25.26 25.26 0 0 0 4.973 6.05 1.098 1.098 0 0 0 1.593-.098c.396-.49.354-1.2-.098-1.639z"/>
    </g>
</svg>
