<?xml version="1.0" encoding="utf-8"?>
<!-- Generator: Adobe Illustrator 18.0.0, SVG Export Plug-In . SVG Version: 6.00 Build 0)  -->
<!DOCTYPE svg PUBLIC "-//W3C//DTD SVG 1.1//EN" "http://www.w3.org/Graphics/SVG/1.1/DTD/svg11.dtd">
<svg width="60px" version="1.1" id="Layer_1" xmlns="http://www.w3.org/2000/svg" xmlns:xlink="http://www.w3.org/1999/xlink" x="0px" y="0px"
	 viewBox="0 0 61 60" enable-background="new 0 0 61 60" xml:space="preserve">
<g>
	<g>
		<defs>
			<filter id="Adobe_OpacityMaskFilter" filterUnits="userSpaceOnUse" x="0.4" y="0" width="60.1" height="60">
				<feColorMatrix  type="matrix" values="1 0 0 0 0  0 1 0 0 0  0 0 1 0 0  0 0 0 1 0"/>
			</filter>
		</defs>
		<mask maskUnits="userSpaceOnUse" x="0.4" y="0" width="60.1" height="60" id="b_1_">
			<g filter="url(#Adobe_OpacityMaskFilter)">
				<path id="a_1_" fill="#FFFFFF" d="M0.4,0h60.1v60H0.4V0z"/>
			</g>
		</mask>
		<path mask="url(#b_1_)" fill="#172832" d="M30.5,2.6c-7.3,0-14.2,2.9-19.4,8C5.9,15.8,3,22.7,3,30c0,7.3,2.9,14.2,8.1,19.4
			c5.2,5.2,12.1,8,19.4,8c7.3,0,14.2-2.9,19.4-8c5.2-5.2,8-12.1,8-19.4c0-7.3-2.9-14.2-8-19.4C44.7,5.4,37.8,2.6,30.5,2.6 M30.5,60
			c-8,0-15.6-3.1-21.2-8.8C3.6,45.5,0.4,38,0.4,30c0-8,3.1-15.6,8.8-21.2C14.9,3.1,22.5,0,30.5,0c8,0,15.6,3.1,21.3,8.8
			c5.7,5.7,8.8,13.2,8.8,21.2c0,8-3.1,15.5-8.8,21.2C46.1,56.9,38.5,60,30.5,60"/>
	</g>
	<path fill="#172832" d="M30.5,31.3c-0.3,0-0.7-0.1-0.9-0.4c-0.2-0.2-0.4-0.6-0.4-0.9c0-0.3,0.1-0.7,0.4-0.9
		c0.2-0.2,0.6-0.4,0.9-0.4s0.7,0.1,0.9,0.4c0.2,0.2,0.4,0.6,0.4,0.9c0,0.3-0.1,0.7-0.4,0.9C31.2,31.1,30.8,31.3,30.5,31.3"/>
	<path fill="#172832" d="M30.5,20.6c-5.2,0-9.4,4.2-9.4,9.4c0,5.2,4.2,9.4,9.4,9.4s9.4-4.2,9.4-9.4C39.9,24.8,35.7,20.6,30.5,20.6
		 M30.5,42c-6.6,0-12-5.4-12-12c0-6.6,5.4-12,12-12c6.6,0,12,5.4,12,12C42.5,36.6,37.1,42,30.5,42 M17.7,48.7
		c-0.3,0-0.5-0.1-0.8-0.2C12.3,45,9.1,40,8,34.3c-0.1-0.3,0-0.7,0.2-1c0.2-0.4,0.6-0.6,1.1-0.6c0.6,0,1.1,0.4,1.3,1
		c1,5,3.8,9.5,8,12.6c0.6,0.4,0.7,1.2,0.3,1.8C18.5,48.5,18.2,48.7,17.7,48.7 M51.7,27.3c-0.6,0-1.1-0.4-1.3-1
		c-1-5.1-3.8-9.5-8-12.6c-0.3-0.2-0.5-0.5-0.5-0.8c-0.1-0.7,0.4-1.4,1.1-1.5c0.3,0,0.7,0,0.9,0.2c4.7,3.5,7.9,8.5,9,14.2
		c0.1,0.3,0,0.7-0.2,1C52.6,27.1,52.2,27.3,51.7,27.3"/>
	<path fill="#CF4347" d="M17.7,48.7c-0.3,0-0.5-0.1-0.8-0.2C12.3,45,9.1,40,8,34.3c-0.1-0.3,0-0.7,0.2-1c0.2-0.4,0.6-0.6,1.1-0.6
		c0.6,0,1.1,0.4,1.3,1c1,5,3.8,9.5,8,12.6c0.6,0.4,0.7,1.2,0.3,1.8C18.5,48.5,18.2,48.7,17.7,48.7"/>
	<path fill="#CF4347" d="M51.7,27.3c-0.6,0-1.1-0.4-1.3-1c-1-5.1-3.8-9.5-8-12.6c-0.3-0.2-0.5-0.5-0.5-0.8c-0.1-0.7,0.4-1.4,1.1-1.5
		c0.3,0,0.7,0,0.9,0.2c4.7,3.5,7.9,8.5,9,14.2c0.1,0.3,0,0.7-0.2,1C52.6,27.1,52.2,27.3,51.7,27.3"/>
</g>
</svg>
