<svg xmlns="http://www.w3.org/2000/svg" width="57" height="50" viewBox="0 0 57 50">
    <g fill="none" fill-rule="evenodd">
        <path fill="#172832" d="M8.736 42.177a.883.883 0 0 1-.883-.88c0-.485.397-.88.883-.88h13.22c.487 0 .883.395.883.88 0 .486-.396.88-.883.88H8.736zM28.5 42.177a.883.883 0 0 1-.884-.88c0-.485.396-.88.884-.88h13.22c.486 0 .883.395.883.88 0 .486-.397.88-.883.88H28.5zM8.736 9.583a.883.883 0 0 1-.883-.88c0-.485.397-.88.883-.88H41.72c.486 0 .883.395.883.88s-.397.88-.883.88H8.736zM28.5 16.102a.883.883 0 0 1-.884-.88c0-.485.396-.88.884-.88h13.22c.486 0 .883.395.883.88s-.397.88-.883.88H28.5zM28.5 22.621a.883.883 0 0 1-.884-.88c0-.485.396-.88.884-.88h13.22c.486 0 .883.395.883.88s-.397.88-.883.88H28.5zM28.5 29.14a.883.883 0 0 1-.884-.88c0-.485.396-.88.884-.88h13.22c.486 0 .883.395.883.88s-.397.88-.883.88H28.5zM28.5 35.659a.883.883 0 0 1-.884-.88c0-.485.396-.88.884-.88h13.22c.486 0 .883.395.883.88s-.397.88-.883.88H28.5zM8.736 35.659a.883.883 0 0 1-.883-.88c0-.485.397-.88.883-.88h13.22c.487 0 .883.395.883.88s-.396.88-.883.88H8.736z"/>
        <path fill="#CF4347" d="M9.62 27.51H21.07V16.102H9.62V27.51zm-.884 1.76a.882.882 0 0 1-.883-.88V15.222c0-.485.397-.88.883-.88h13.22c.487 0 .883.395.883.88V28.39c0 .486-.396.88-.884.88H8.736z"/>
        <path fill="#000" d="M1.767 43.905c0 2.39 1.952 4.335 4.352 4.335H50.88c2.4 0 4.352-1.945 4.352-4.335V8.28h-4.778v33.67a1.08 1.08 0 0 0 1.08 1.076c.487 0 .884.394.884.88s-.397.88-.883.88a2.844 2.844 0 0 1-2.847-2.836V1.761H1.767v42.144zM6.119 50C2.745 50 0 47.266 0 43.905V2.185C0 .98.983 0 2.192 0h46.072a2.19 2.19 0 0 1 2.191 2.185v4.334h4.353A2.19 2.19 0 0 1 57 8.703v35.202C57 47.266 54.255 50 50.88 50H6.12z"/>
    </g>
</svg>
