<svg xmlns="http://www.w3.org/2000/svg" width="60" height="61" viewBox="0 0 60 61">
    <g fill="none" fill-rule="nonzero" stroke="#FFF" stroke-width=".2">
        <path fill="#172832" d="M29.973 42.643c6.077-.012 10.999-4.868 11.006-10.859V11.858c0-5.992-4.927-10.85-11.006-10.85-6.078 0-11.005 4.858-11.005 10.85v19.926c.003 5.993 4.927 10.851 11.005 10.859zm0-39.333c4.785.007 8.66 3.83 8.664 8.547V21.4H21.31v-9.542c.005-4.717 3.88-8.54 8.664-8.548zm-8.664 20.4h17.328v8.074c0 4.718-3.879 8.542-8.664 8.542s-8.664-3.824-8.664-8.542V23.71z"/>
        <path fill="#CF4347" d="M27.129 16.167h5.701c.647 0 1.172-.517 1.172-1.155s-.525-1.155-1.172-1.155H27.13c-.648 0-1.172.517-1.172 1.155s.524 1.155 1.172 1.155zM27.129 11.858h5.701c.647 0 1.172-.517 1.172-1.155s-.525-1.155-1.172-1.155H27.13c-.648 0-1.172.517-1.172 1.155s.524 1.155 1.172 1.155z"/>
        <path fill="#172832" d="M44.96 30.63a1.166 1.166 0 0 0-1.171 1.155c0 7.523-6.186 13.62-13.816 13.62-7.63 0-13.815-6.097-13.815-13.62 0-.637-.524-1.154-1.17-1.154-.648 0-1.172.517-1.172 1.154.012 7.486 5.29 13.962 12.704 15.583v5.846h-.093c-3.239.007-5.861 2.594-5.866 5.787a1.166 1.166 0 0 0 1.171 1.155h16.473A1.166 1.166 0 0 0 39.376 59c-.004-3.193-2.627-5.78-5.865-5.787h-.094v-5.846c7.418-1.613 12.701-8.094 12.704-15.583a1.127 1.127 0 0 0-.333-.82 1.159 1.159 0 0 0-.828-.335zm-8.126 27.204H23.113a3.524 3.524 0 0 1 3.325-2.322h7.083a3.52 3.52 0 0 1 3.314 2.322h-.001zm-5.749-4.632h-2.228v-5.51a17.835 17.835 0 0 0 2.228 0v5.51zM1.573 11.789a1.166 1.166 0 0 0-1.171 1.155v11.274c0 .413.223.794.585 1 .363.206.809.206 1.171 0 .363-.206.586-.587.586-1V12.944a1.166 1.166 0 0 0-1.171-1.155zM12.652 22.485a1.166 1.166 0 0 0 1.171-1.155V15.83c0-.638-.524-1.154-1.17-1.154-.647 0-1.172.516-1.172 1.154v5.499c0 .306.122.6.342.818.22.217.518.338.83.337z"/>
        <path fill="#CF4347" d="M7.113 10.622a1.166 1.166 0 0 0-1.171 1.155v15.618c0 .412.223.793.585 1 .362.206.809.206 1.171 0 .362-.207.585-.588.585-1V11.777a1.166 1.166 0 0 0-1.17-1.155z"/>
        <path fill="#172832" d="M58.374 11.789a1.166 1.166 0 0 0-1.17 1.155v11.274c0 .638.523 1.155 1.17 1.155.647 0 1.17-.517 1.17-1.155V12.944a1.166 1.166 0 0 0-1.17-1.155zM47.295 22.485a1.166 1.166 0 0 0 1.17-1.155V15.83c0-.638-.524-1.154-1.17-1.154-.647 0-1.171.516-1.171 1.154v5.499c-.001.306.122.6.341.818.22.217.519.338.83.337z"/>
        <path fill="#CF4347" d="M52.834 26.24a1.24 1.24 0 0 0-.831.338 1.136 1.136 0 0 0-.343.82c.005.307.128.6.343.82.22.22.52.341.831.339.311-.003.609-.124.832-.338.221-.217.345-.513.343-.82a1.135 1.135 0 0 0-.34-.82 1.168 1.168 0 0 0-.831-.336l-.004-.003zM52.834 10.622a1.166 1.166 0 0 0-1.17 1.155v10.708c0 .638.524 1.154 1.17 1.154.647 0 1.171-.516 1.171-1.154V11.777a1.166 1.166 0 0 0-1.17-1.155z"/>
    </g>
</svg>
