<svg xmlns="http://www.w3.org/2000/svg" width="44" height="60" viewBox="0 0 44 60">
    <g fill="none" fill-rule="evenodd">
        <path fill="#CF4347" d="M25.662 19.334a.862.862 0 0 0-.257.778l.614 3.408-3.104-1.627a.887.887 0 0 0-.83 0L18.98 23.52l.615-3.408a.862.862 0 0 0-.258-.778l-2.532-2.403 3.483-.478a.882.882 0 0 0 .673-.482L22.5 12.86l1.538 3.112c.13.262.382.442.674.482l3.483.478-2.533 2.403zm5.295-3.286a.881.881 0 0 0-.719-.593l-4.815-.662-2.128-4.304A.885.885 0 0 0 22.5 10a.883.883 0 0 0-.794.49l-2.13 4.303-4.815.662a.88.88 0 0 0-.717.593.858.858 0 0 0 .226.895l3.502 3.322-.849 4.713c-.06.327.078.66.35.856a.895.895 0 0 0 .935.063l4.292-2.25 4.291 2.25c.3.158.662.132.936-.063a.864.864 0 0 0 .35-.856l-.848-4.713 3.501-3.322a.86.86 0 0 0 .227-.895z"/>
        <path fill="#172832" d="M27.166 31.77v1.46a.922.922 0 0 1-.917.923H17.75a.922.922 0 0 1-.917-.924v-1.46c0-.508.411-.922.917-.922h8.498c.506 0 .917.414.917.923zM17.751 29A2.763 2.763 0 0 0 15 31.77v1.46c0 1.527 1.233 2.77 2.751 2.77h8.498C27.767 36 29 34.757 29 33.23v-1.46A2.763 2.763 0 0 0 26.249 29H17.75z"/>
        <path fill="#172832" d="M1.768 58.221h40.464v-4.084H1.768v4.084zM3.103 4.78h37.794V1.779H3.103V4.78zm40.013 47.578h-2.953V6.559h1.617a.886.886 0 0 0 .884-.889V.89A.886.886 0 0 0 41.78 0H2.22a.886.886 0 0 0-.884.89v4.78c0 .491.396.889.884.889h1.617v11.528c0 .491.396.889.884.889a.887.887 0 0 0 .885-.889V6.56h32.788v36.506H23.75a.886.886 0 0 0-.883.889c0 .491.395.89.883.89h14.645v7.513H5.604v-7.513h14.611a.887.887 0 0 0 .883-.89.886.886 0 0 0-.883-.889H5.605V21.645a.887.887 0 0 0-.885-.89.886.886 0 0 0-.883.89v30.713H.884a.886.886 0 0 0-.884.889v5.863c0 .492.395.89.884.89h42.232a.887.887 0 0 0 .884-.89v-5.863a.886.886 0 0 0-.884-.889z"/>
    </g>
</svg>
