<?xml version="1.0" encoding="utf-8"?>
<!-- Generator: Adobe Illustrator 18.0.0, SVG Export Plug-In . SVG Version: 6.00 Build 0)  -->
<!DOCTYPE svg PUBLIC "-//W3C//DTD SVG 1.1//EN" "http://www.w3.org/Graphics/SVG/1.1/DTD/svg11.dtd">
<svg version="1.1" id="Layer_1" xmlns="http://www.w3.org/2000/svg" xmlns:xlink="http://www.w3.org/1999/xlink" x="0px" y="0px"
	 viewBox="0 0 512 512" enable-background="new 0 0 512 512" fill="#cf4347" xml:space="preserve">
<g>
	<path id="Shape" d="M26.5,282.5c0,124.1,98.7,225.8,222.8,229.5c124.1,3.7,228.6-92,235.9-216c7.3-123.9-85.3-231.2-209-242.1
		l26.7-22.8c5-4,7.4-10.5,6.3-16.8c-1.1-6.3-5.6-11.5-11.6-13.6c-6.1-2.1-12.8-0.7-17.6,3.6l-61.8,53c-3.9,3.4-6.2,8.3-6.2,13.4
		c0,5.2,2.3,10.1,6.2,13.4l61.8,53c7.4,6,18.3,5,24.5-2.2c6.2-7.3,5.5-18.2-1.6-24.6l-23.9-20.5C382.4,102,457.8,193.8,449.6,297.8
		s-97.1,182.9-201.3,178.8c-104.2-4.1-186.6-89.8-186.5-194.1c-0.2-43.7,14.6-86.1,41.8-120.3c5.9-7.7,4.5-18.6-3-24.6
		c-7.6-6-18.6-4.8-24.7,2.7C43.7,180.7,26.3,230.8,26.5,282.5z"/>
	<path id="Shape_1_" d="M190,135.1c6.3-7.4,5.5-18.5-1.9-24.9l-46.1-39.6L188,31c5-4,7.4-10.5,6.3-16.8c-1.1-6.3-5.6-11.5-11.6-13.6
		c-6.1-2.1-12.8-0.7-17.6,3.6l-61.8,53c-3.9,3.4-6.2,8.3-6.2,13.4c0,5.2,2.3,10.1,6.2,13.4l61.8,53c3.6,3,8.2,4.6,12.8,4.2
		C182.6,140.8,186.9,138.6,190,135.1L190,135.1z"/>
</g>
<path id="Shape_2_" d="M158.9,353.1c-9.8,0-17.7,7.9-17.7,17.7c0,9.8,7.9,17.7,17.7,17.7h53c9.8,0,17.7-7.9,17.7-17.7
	c0-9.8-7.9-17.7-17.7-17.7H203V203c0-6.5-3.6-12.5-9.3-15.6s-12.7-2.7-18.1,0.9L149.1,206c-7.9,5.3-10.2,15.9-5.2,24
	s15.5,10.7,23.8,6v117.1H158.9z"/>
<path id="Shape_3_" d="M300.1,185.4c-24.4,0-44.1,19.8-44.1,44.1v114.8c0,24.4,19.8,44.1,44.1,44.1h26.5c24.4,0,44.1-19.8,44.1-44.1
	V229.5c0-24.4-19.8-44.1-44.1-44.1H300.1z M335.4,229.5v114.8c0,4.9-4,8.8-8.8,8.8h-26.5c-4.9,0-8.8-4-8.8-8.8V229.5
	c0-4.9,4-8.8,8.8-8.8h26.5C331.5,220.7,335.4,224.6,335.4,229.5z"/>
</svg>
