<?xml version="1.0" encoding="utf-8"?>
<!-- Generator: Adobe Illustrator 23.0.5, SVG Export Plug-In . SVG Version: 6.00 Build 0)  -->
<svg version="1.1" id="Capa_1" xmlns="http://www.w3.org/2000/svg" xmlns:xlink="http://www.w3.org/1999/xlink" x="0px" y="0px"
	 viewBox="0 0 42 40" style="enable-background:new 0 0 42 40;" xml:space="preserve">
<style type="text/css">
	.st0{fill:#CE252C;}
</style>
<g>
	<g>
		<g>
			<path class="st0" d="M11,7.5c-1.4,0-2.5,1.1-2.5,2.5s1.1,2.5,2.5,2.5s2.5-1.1,2.5-2.5S12.4,7.5,11,7.5z"/>
		</g>
	</g>
	<g>
		<g>
			<path class="st0" d="M21,7.5c-1.4,0-2.5,1.1-2.5,2.5s1.1,2.5,2.5,2.5s2.5-1.1,2.5-2.5S22.4,7.5,21,7.5z"/>
		</g>
	</g>
	<g>
		<g>
			<path class="st0" d="M31,7.5c-1.4,0-2.5,1.1-2.5,2.5s1.1,2.5,2.5,2.5c1.4,0,2.5-1.1,2.5-2.5S32.4,7.5,31,7.5z"/>
		</g>
	</g>
	<g>
		<g>
			<path class="st0" d="M11,27.5c-1.4,0-2.5,1.1-2.5,2.5s1.1,2.5,2.5,2.5s2.5-1.1,2.5-2.5S12.4,27.5,11,27.5z"/>
		</g>
	</g>
	<g>
		<g>
			<path class="st0" d="M21,27.5c-1.4,0-2.5,1.1-2.5,2.5s1.1,2.5,2.5,2.5s2.5-1.1,2.5-2.5S22.4,27.5,21,27.5z"/>
		</g>
	</g>
	<g>
		<g>
			<path class="st0" d="M31,27.5c-1.4,0-2.5,1.1-2.5,2.5s1.1,2.5,2.5,2.5c1.4,0,2.5-1.1,2.5-2.5S32.4,27.5,31,27.5z"/>
		</g>
	</g>
	<g>
		<g>
			<path class="st0" d="M11,17.5c-1.4,0-2.5,1.1-2.5,2.5s1.1,2.5,2.5,2.5s2.5-1.1,2.5-2.5S12.4,17.5,11,17.5z"/>
		</g>
	</g>
	<g>
		<g>
			<path class="st0" d="M21,17.5c-1.4,0-2.5,1.1-2.5,2.5s1.1,2.5,2.5,2.5s2.5-1.1,2.5-2.5S22.4,17.5,21,17.5z"/>
		</g>
	</g>
	<g>
		<g>
			<path class="st0" d="M31,17.5c-1.4,0-2.5,1.1-2.5,2.5s1.1,2.5,2.5,2.5c1.4,0,2.5-1.1,2.5-2.5S32.4,17.5,31,17.5z"/>
		</g>
	</g>
</g>
</svg>
