<svg xmlns="http://www.w3.org/2000/svg" width="153" height="461" viewBox="0 0 153 461">
    <g fill="none" fill-rule="evenodd" opacity=".4">
        <path fill="#FF4D35" d="M63.912 299.545L47.594 279.54l2.987-2.437L66.9 297.112l-2.987 2.433zm-12.405-26.182l-1.367 1.115-1.08.88-2.74 2.237-2.452 2-15.64 12.755c-.266-3.263-2.51-6.02-6.002-7.019-4.18-1.198-8.453.72-9.49 4.344-1.037 3.625 1.491 7.507 5.673 8.702 2.812.806 5.679.226 7.55-1.37.146-.054.322-.085.452-.19l18.794-15.328 16.319 20.006-15.515 12.653c-.266-3.263-2.52-6.03-6.01-7.028-4.18-1.2-8.456.716-9.493 4.34-1.038 3.623 1.49 7.506 5.67 8.701 2.811.806 5.686.232 7.556-1.365.145-.051.329-.075.457-.18l18.919-15.43 2.452-2 2.74-2.237 1.081-.881 1.367-1.114-19.24-23.591zM139.94 29.019l25.198 16.528-2.467 3.761-25.2-16.53 2.468-3.76zm23.013 24.778l1.13-1.723.893-1.36 2.264-3.452 2.025-3.088 12.921-19.696c1.444 3.538 4.912 5.817 9.148 5.702 5.076-.138 9.156-3.775 9.035-8.173-.12-4.4-4.3-7.832-9.375-7.69-3.41.09-6.398 1.744-7.92 4.18-.143.11-.329.207-.435.368l-15.527 23.672-25.2-16.528 12.819-19.54c1.443 3.539 4.924 5.827 9.16 5.71 5.075-.137 9.16-3.772 9.04-8.17-.12-4.398-4.298-7.83-9.372-7.69-3.412.09-6.41 1.742-7.93 4.177-.143.108-.338.2-.444.362l-15.63 23.828-2.027 3.086-2.262 3.453-.892 1.362-1.132 1.719 29.71 19.491z"/>
        <path fill="#FFBD09" d="M68.05 266.265c2.458.145 5.02-.218 7.44-.87a33.307 33.307 0 0 0 6.755-2.672c2.038-1.066 4.743-2.54 6.216-3.625 1.777-1.307 3.793-3.063 4.011-3.903.257-.998-.37-1.924-1.369-2.183l-40.156-10.323c3.477-2.604 4.877-8.018 3.017-13.007-2.222-5.979-8.225-9.26-13.407-7.332-5.179 1.926-7.573 8.334-5.35 14.31 1.492 4.02 4.697 6.818 8.21 7.636 2.02.549 44.456 11.552 44.456 11.552l-.182.055s-2.743 2.323-5.962 3.44c-8.56 2.966-12.972 2.982-15.046 2.99-.899 0-3.29-.404-4.07-.55a12.644 12.644 0 0 1-2.126-.598c-.626-.245-1.349-.233-1.799-.476-.447-.25-.973-.197-1.217-.346l-.38-.236s.22-.13.33.143c.055.138.208.173.31.36.096.189.243.348.397.58.285.483.714.994 1.267 1.578.556.572 1.28 1.135 2.143 1.652.86.514 1.88.946 2.984 1.26 1.105.313 2.303.496 3.529.565"/>
        <path fill="#B6698C" d="M75.781 303.147c-.68.71-.694 1.8.018 2.48.709.678 1.797.616 2.477-.095l27.301-28.537c.424 3.995 4.418 7.823 9.428 8.606 6.002.941 11.544-2.495 12.36-7.699.814-5.201-3.381-10.17-9.384-11.113-4.034-.63-7.906.67-10.224 3.206-.194.097-.428.177-.588.342l-31.388 32.81z"/>
        <path fill="#FFBD09" d="M81.783 375.92c1.679 2.43 2.564 5.567 2.152 8.632-.21 1.53-.71 3.04-1.503 4.456l-.306.528-.014.019a350.058 350.058 0 0 0-4.44-3.914 369.28 369.28 0 0 0-8.74-7.438 283.306 283.306 0 0 0-3.986-3.24l.172-.195c.82-.88 1.73-1.712 2.774-2.369 1.04-.653 2.197-1.15 3.428-1.371a9.256 9.256 0 0 1 3.798.101c2.564.601 5.023 2.344 6.665 4.79m-31.852-12.928a336.208 336.208 0 0 1-4.517-3.728 181.526 181.526 0 0 1-4.503-3.867 115.665 115.665 0 0 1-4.385-4.087 56.136 56.136 0 0 1-2.09-2.16 31.687 31.687 0 0 1-1.94-2.278c-.598-.787-1.674-2.28-2.086-3.59-.68-2.156 2.131-1.941 2.596-1.939.933.002 1.904.171 2.856.413 3.813 1.053 7.38 3.17 10.274 5.847a21.967 21.967 0 0 1 3.733 4.492c.507.82.949 1.669 1.314 2.545.184.438.345.882.492 1.328l.107.336.095.33.21.744c.061.24.104.456.16.684.053.223.103.451.143.69l.128.706.095.71c.112.947.182 1.897.187 2.856.008.747-.026 1.496-.076 2.25a822.44 822.44 0 0 0-2.793-2.282m29.374 29.93c-2.49 2.319-5.81 3.84-9.287 3.985-1.73.06-3.484-.191-5.104-.83A11.885 11.885 0 0 1 58.977 391c-.12-.192-.229-.4-.339-.598l-.141-.278c-.046-.083-.113-.236-.168-.349l-.086-.185-.058-.138-.145-.346-.292-.69c-.717-1.866-1.257-3.8-1.527-5.808a26.783 26.783 0 0 1-.258-3.066 37.456 37.456 0 0 1 .028-3.168c.053-1.257.154-2.54.262-3.85 1.557 1.383 3.097 2.75 4.622 4.099a11.394 11.394 0 0 0-.853 3.626c-.071 1.224.07 2.39.35 3.445.567 2.111 1.639 3.774 2.813 4.95 1.18 1.173 2.478 1.895 3.65 2.102.586.107 1.126.08 1.573-.026a3.646 3.646 0 0 0 1.786-1.055 2.163 2.163 0 0 0-3.198-2.91 2.158 2.158 0 0 0 .361 3.224 3.875 3.875 0 0 1-.318-.081c-.92-.285-1.974-1.001-2.883-2.133a9.825 9.825 0 0 1-1.992-4.466 9.165 9.165 0 0 1 .585-5.023 800.526 800.526 0 0 0 3.514 3.082l4.398 3.787a477.869 477.869 0 0 0 4.28 3.66c1.56 1.327 3.085 2.628 4.584 3.906-.075.069-.145.143-.22.21m-3.468-25.353a12.148 12.148 0 0 0-5.267.207c-1.664.428-3.144 1.21-4.4 2.132a16.053 16.053 0 0 0-3.338 3.38 492.332 492.332 0 0 0-6.291-4.86c.09-1.895.1-3.84-.08-5.801-.095-1.205-.375-2.39-.636-3.579l-.277-.869-.25-.88c-.164-.577-.32-1.214-.515-1.788l-.278-.805-.159-.446-.177-.43a22.232 22.232 0 0 0-.837-1.655 23.204 23.204 0 0 0-2.05-3.058 27.265 27.265 0 0 0-5.222-4.994 32.336 32.336 0 0 0-6.166-3.553c-2.164-.95-6.995-3.509-10.375-2.32-3.38 1.187-6.094 4.201 3.475 13.556.803.785 1.64 1.528 2.467 2.276.82.756 1.649 1.497 2.475 2.234 1.654 1.469 3.298 2.931 4.933 4.382l4.88 4.295c1.535 1.352 3.053 2.696 4.558 4.03-.013.117-.02.23-.032.346-.216 2.194-.516 4.434-.684 6.746-.176 2.305-.207 4.69.062 7.063.244 2.376.838 4.715 1.638 6.931l.32.821.165.41.04.103c.02.05.012.034.056.133l.084.188c.06.132.096.229.175.39l.216.448c.146.277.284.554.442.825a17.326 17.326 0 0 0 2.188 3.046 16.28 16.28 0 0 0 6.099 4.253 17.243 17.243 0 0 0 7.15 1.208 18.848 18.848 0 0 0 6.837-1.624 20.218 20.218 0 0 0 6.22-4.391c2.52 2.165 4.965 4.232 7.24 6.207 1.17 1.023 2.328 1.99 3.44 2.979.556.488 1.103.97 1.643 1.448.134.119.27.235.405.353.115.108.235.213.353.32.226.214.447.434.649.659.82.896 1.387 1.875 1.647 2.84a4.236 4.236 0 0 1-.236 2.82c-.389.885-1.056 1.646-1.804 2.244a6.869 6.869 0 0 1-2.438 1.263 6.236 6.236 0 0 1-.623.135l-.145.022-.18.019-.28.01a4.205 4.205 0 0 1-1.135-.157c-.732-.2-1.376-.598-1.907-1.053-.064-.056-.122-.117-.185-.177a3.476 3.476 0 0 0 3.501-1.01 3.484 3.484 0 0 0-.233-4.92c-1.3-1.182-3.62-.78-4.542.089-.926.87-1.625 2.142-1.46 3.298.155 1.145.579 2.357 1.743 3.616.587.617 1.618 1.238 2.58 1.613.48.19 1.009.075 1.563.122.144.007.288-.219.436-.219h.18l.215.234c.289-.013.561.077.843.033 1.121-.183 2.246-.542 3.306-1.213 1.058-.668 2.052-1.587 2.768-2.855a6.806 6.806 0 0 0 .778-4.472c-.257-1.6-1.056-3.042-2.03-4.272-.244-.309-.503-.604-.77-.892l-.205-.211-.113-.118-.094-.093-.38-.379c-.514-.505-1.03-1.02-1.556-1.54-1.04-1.053-2.162-2.105-3.308-3.189-2.262-2.167-4.68-4.347-7.192-6.658.023-.037.047-.073.072-.109l.431-.702.394-.723c1.016-1.949 1.684-4.086 1.87-6.235.19-2.152-.06-4.287-.655-6.248a17.212 17.212 0 0 0-2.699-5.321c-2.356-3.133-5.75-5.273-9.333-5.908"/>
        <path fill="#FF4D35" d="M176.622 143.735c-.515 2.455-1.928 4.833-4.057 6.373a10.717 10.717 0 0 1-3.622 1.683l-.502.119-.02.004c-.05-1.643-.109-3.318-.188-5.026a308.152 308.152 0 0 0-.536-9.73 221.53 221.53 0 0 0-.335-4.349l.22-.01c1.021-.008 2.067.064 3.08.324 1.013.259 1.995.68 2.85 1.307a7.867 7.867 0 0 1 2.16 2.398c1.13 1.93 1.495 4.464.95 6.907m-10.672-27.173a265.897 265.897 0 0 1-.347-4.961 156.7 156.7 0 0 1-.254-5.035 98.163 98.163 0 0 1-.05-5.09c.012-.85.054-1.702.108-2.55.055-.85.136-1.696.269-2.528.134-.828.425-2.363.99-3.382.93-1.681 2.442.176 2.713.462.544.575 1.008 1.273 1.415 2 1.582 2.964 2.366 6.4 2.41 9.745a18.765 18.765 0 0 1-.581 4.926c-.21.791-.473 1.56-.8 2.297-.16.37-.34.729-.53 1.08l-.143.264-.149.251-.335.565c-.11.176-.218.33-.327.497a9.151 9.151 0 0 1-.34.491l-.361.492-.381.476c-.516.622-1.06 1.22-1.65 1.785-.453.441-.934.859-1.429 1.269-.074-1.014-.148-2.031-.228-3.054m-1.244 35.591c-2.886-.177-5.764-1.33-7.887-3.387-1.049-1.03-1.919-2.256-2.475-3.628a10.085 10.085 0 0 1-.73-4.365c.046-.754.17-1.512.382-2.259.05-.186.113-.373.171-.557l.089-.252c.024-.076.079-.206.117-.306l.063-.161.051-.118.128-.29.254-.584c.728-1.532 1.603-2.996 2.683-4.338a22.914 22.914 0 0 1 1.735-1.951 31.792 31.792 0 0 1 1.968-1.836 84.404 84.404 0 0 1 2.523-2.091c.06 1.766.119 3.516.181 5.244a9.637 9.637 0 0 0-2.73 1.595 9.296 9.296 0 0 0-1.917 2.23c-.97 1.585-1.366 3.217-1.403 4.628-.031 1.413.282 2.634.841 3.477.277.423.61.74.936.953.33.208.937.498 1.695.481a1.836 1.836 0 1 0-1.876-1.796c.002.08.011.157.022.234a2.799 2.799 0 0 1-.135-.243c-.364-.733-.538-1.8-.373-3.022a8.336 8.336 0 0 1 1.582-3.84 7.762 7.762 0 0 1 3.436-2.576c.05 1.333.101 2.656.158 3.964.083 1.664.161 3.307.24 4.923.078 1.618.16 3.211.253 4.778l.275 5.105c-.086-.004-.173-.004-.257-.012m13.579-16.964a10.29 10.29 0 0 0-3.207-3.122c-1.239-.774-2.585-1.23-3.887-1.462a13.71 13.71 0 0 0-3.756-.114c-.094.01-.185.023-.277.035-.207-2.21-.438-4.447-.689-6.715 1.218-1.055 2.423-2.184 3.525-3.443.686-.763 1.252-1.628 1.83-2.484l.374-.68.396-.668c.26-.438.56-.908.8-1.363l.333-.643.18-.359.16-.36c.198-.489.379-.982.53-1.484.313-1 .538-2.022.684-3.048a23.21 23.21 0 0 0 .023-6.138 27.532 27.532 0 0 0-1.422-5.875c-.679-1.889-1.931-6.358-4.639-7.744-2.708-1.386-6.151-1.294-6.313 10.07-.014.953.017 1.903.04 2.848.017.948.043 1.89.074 2.832.062 1.877.124 3.744.187 5.6l.21 5.516c.066 1.736.126 3.458.186 5.164-.08.06-.154.123-.233.184-1.477 1.15-3.03 2.273-4.553 3.524-1.521 1.24-3.008 2.616-4.311 4.17-1.322 1.539-2.413 3.273-3.31 5.061l-.317.68-.157.34-.04.083c-.017.042-.015.03-.05.114l-.066.16c-.046.115-.084.194-.137.336l-.15.397c-.087.251-.174.498-.25.755a14.9 14.9 0 0 0-.595 3.127c-.17 2.128.16 4.293.949 6.244a14.666 14.666 0 0 0 3.44 5.11 15.993 15.993 0 0 0 4.996 3.257 17.149 17.149 0 0 0 6.344 1.26c.141 2.82.3 5.534.413 8.09.056 1.318.136 2.597.178 3.859.025.629.047 1.248.07 1.859l.018.456.011.403c0 .267-.005.53-.026.787-.073 1.029-.343 1.952-.785 2.676a3.595 3.595 0 0 1-1.876 1.504c-.771.277-1.629.312-2.436.203a5.862 5.862 0 0 1-2.202-.765 5.026 5.026 0 0 1-.448-.303l-.1-.077-.116-.101-.17-.165a3.62 3.62 0 0 1-.568-.791c-.305-.569-.435-1.198-.466-1.79-.004-.074 0-.144 0-.217a2.957 2.957 0 0 0 5.563-1.456c-.033-1.493-1.635-2.685-2.712-2.747-1.076-.059-2.268.254-2.884 1.03-.615.767-1.112 1.736-1.206 3.19-.036.722.185 1.722.517 2.533.163.407.394.804.69 1.174l.241.279.107.112.13.128a7 7 0 0 0 .547.47 7.557 7.557 0 0 0 2.717 1.29c1.03.26 2.194.316 3.394.015a5.85 5.85 0 0 0 1.752-.77 5.9 5.9 0 0 0 1.47-1.379c.835-1.095 1.259-2.43 1.445-3.75.048-.33.079-.664.1-.999l.012-.249.005-.138.002-.113c.005-.152.008-.303.012-.458.011-.61.026-1.23.04-1.858.039-1.254.03-2.562.027-3.9.012-2.661-.061-5.425-.108-8.323l.109-.02.684-.145.677-.18c1.792-.514 3.5-1.353 4.932-2.497a14.04 14.04 0 0 0 3.461-4.056 14.619 14.619 0 0 0 1.7-4.775c.55-3.282-.118-6.624-1.823-9.2"/>
        <path fill="#6DCECD" d="M116.835 339.478c-2.781 1.831-6.338 2.753-9.781 2.215a14.248 14.248 0 0 1-4.989-1.802l-.586-.356-.021-.017c1.485-1.594 3-3.227 4.52-4.912 2.823-3.08 5.7-6.303 8.595-9.672a299.61 299.61 0 0 0 3.749-4.415c.071.068.146.13.217.199.97.946 1.89 1.993 2.602 3.185.71 1.187 1.243 2.503 1.465 3.895.222 1.39.164 2.848-.208 4.282-.74 2.873-2.765 5.603-5.563 7.398m15.349-35.595a389.162 389.162 0 0 1 4.31-5.002 213.264 213.264 0 0 1 4.47-4.983c1.528-1.64 3.088-3.27 4.712-4.843a67.215 67.215 0 0 1 2.486-2.305 34.804 34.804 0 0 1 2.617-2.13c.9-.655 2.608-1.83 4.096-2.265 2.448-.714 2.137 2.45 2.125 2.972-.025 1.053-.24 2.143-.535 3.212-1.282 4.271-3.756 8.243-6.842 11.44-1.549 1.597-3.285 2.991-5.154 4.098a20.331 20.331 0 0 1-4.41 1.94l-.381.115-.375.098-.844.22c-.271.062-.516.106-.775.163-.252.053-.51.105-.78.145l-.799.125-.802.093c-1.07.103-2.144.157-3.226.14a31.961 31.961 0 0 1-2.535-.141c.879-1.026 1.76-2.053 2.642-3.092M97.729 336.27c-2.554-2.865-4.188-6.644-4.265-10.567-.026-1.952.298-3.923 1.059-5.734a13.408 13.408 0 0 1 3.393-4.8 14.19 14.19 0 0 1 2.472-1.77c.22-.132.455-.248.682-.366l.32-.155c.092-.048.266-.119.397-.179l.209-.092.157-.064.393-.154.785-.311c2.121-.765 4.313-1.326 6.585-1.582a29.96 29.96 0 0 1 3.462-.216 44.01 44.01 0 0 1 3.571.107c1.414.093 2.862.237 4.333.388l-4.733 5.113a12.808 12.808 0 0 0-4.066-1.05c-1.379-.11-2.695.024-3.893.313-2.395.586-4.294 1.754-5.648 3.05-1.35 1.302-2.197 2.748-2.459 4.063a4.334 4.334 0 0 0-.007 1.774 4.118 4.118 0 0 0 1.146 2.04 2.44 2.44 0 0 0 3.446-.088 2.44 2.44 0 0 0-.09-3.449 2.434 2.434 0 0 0-3.642.33c.027-.116.06-.236.099-.355.345-1.03 1.177-2.201 2.475-3.198a11.054 11.054 0 0 1 5.083-2.139 10.276 10.276 0 0 1 5.647.783c-1.2 1.303-2.39 2.6-3.559 3.884-1.478 1.646-2.938 3.27-4.375 4.866a529.407 529.407 0 0 0-4.229 4.738l-4.516 5.072c-.076-.085-.157-.166-.232-.252m28.665-3.294a13.67 13.67 0 0 0-.105-5.942c-.443-1.886-1.287-3.577-2.296-5.012a18.24 18.24 0 0 0-3.434-3.62c-.1-.079-.197-.152-.294-.225a553.7 553.7 0 0 0 5.629-6.976c2.135.147 4.327.208 6.543.05 1.36-.077 2.702-.364 4.049-.63l.987-.291.999-.26c.652-.17 1.375-.33 2.026-.538l.916-.293.506-.17.488-.19a23.614 23.614 0 0 0 1.887-.902 25.724 25.724 0 0 0 3.495-2.238c2.195-1.665 4.114-3.624 5.76-5.764a36.453 36.453 0 0 0 4.152-6.863c1.126-2.419 4.126-7.803 2.868-11.642-1.256-3.837-4.59-6.97-15.366 3.588-.905.888-1.764 1.813-2.627 2.727-.87.907-1.727 1.82-2.578 2.737-1.695 1.828-3.384 3.646-5.06 5.454l-4.96 5.398a1915.746 1915.746 0 0 1-4.653 5.039c-.13-.016-.259-.028-.39-.043-2.468-.298-4.983-.69-7.587-.935-2.594-.256-5.282-.347-7.965-.1-2.684.215-5.335.829-7.853 1.675l-.934.344-.465.173-.117.043c-.054.024-.038.014-.152.062l-.212.088c-.15.065-.262.105-.445.19l-.51.23c-.318.16-.63.309-.941.48a19.7 19.7 0 0 0-3.487 2.392 18.36 18.36 0 0 0-4.943 6.772 19.453 19.453 0 0 0-1.534 8.034c.061 2.702.65 5.338 1.664 7.744a22.78 22.78 0 0 0 4.8 7.12c-2.5 2.788-4.89 5.495-7.175 8.011-1.179 1.295-2.297 2.576-3.44 3.804-.564.616-1.121 1.222-1.67 1.819-.138.15-.273.3-.41.447-.124.13-.245.26-.368.391-.25.25-.502.495-.759.715-1.031.903-2.147 1.52-3.24 1.789a4.768 4.768 0 0 1-3.177-.336c-.986-.46-1.83-1.23-2.487-2.086a7.807 7.807 0 0 1-1.363-2.78 7.587 7.587 0 0 1-.137-.705l-.02-.167-.017-.2-.005-.318c.006-.44.085-.867.205-1.275.241-.82.71-1.535 1.233-2.124.065-.072.135-.136.204-.205a3.919 3.919 0 0 0 1.054 3.971 3.927 3.927 0 0 0 5.55-.143c1.367-1.437.97-4.06.012-5.122-.958-1.065-2.376-1.885-3.682-1.726-1.297.146-2.67.595-4.118 1.88-.71.646-1.438 1.791-1.882 2.87a6.229 6.229 0 0 0-.448 1.75 28.09 28.09 0 0 0-.03.49l-.008.205.004.244c.007.324.034.632.076.95.179 1.267.624 2.547 1.353 3.757a9.197 9.197 0 0 0 3.188 3.19c.706.412 1.509.736 2.372.912a7.78 7.78 0 0 0 2.675.074c1.81-.25 3.459-1.115 4.868-2.182.354-.27.696-.552 1.028-.849l.244-.225.135-.124.109-.105c.145-.138.29-.28.435-.42a953.74 953.74 0 0 1 1.778-1.714c1.21-1.148 2.423-2.388 3.67-3.652 2.501-2.499 5.016-5.172 7.683-7.948l.12.084.782.502.805.466c2.171 1.19 4.563 1.994 6.985 2.258 2.42.265 4.83.036 7.056-.589a19.352 19.352 0 0 0 6.068-2.913c3.587-2.58 6.08-6.354 6.883-10.377"/>
        <path fill="#FFBD09" d="M62.838 91.125c-.208.983.364 1.934 1.348 2.144.982.208 1.892-.432 2.101-1.412l8.366-39.463c2.514 3.242 8.042 4.416 12.816 2.405 5.717-2.41 8.681-8.378 6.593-13.333-2.09-4.954-8.404-7.015-14.124-4.604-3.843 1.622-6.505 4.83-7.156 8.28-.116.188-.277.383-.328.616l-9.616 45.367z"/>
        <path fill="#B6698C" d="M18.06 240.478c-4.04-.49-5.975 3.003-6.395 4.23-.419-1.227-2.354-4.72-6.393-4.23-4.262.516-5.715 6.264-3.018 10.494 2.696 4.23 9.411 8.718 9.411 8.718s6.717-4.487 9.413-8.718c2.696-4.23 1.243-9.978-3.019-10.494"/>
        <path fill="#FF4D35" d="M155.158 441.318c-4.08-.494-6.033 3.033-6.457 4.273-.424-1.24-2.377-4.767-6.456-4.273-4.304.521-5.772 6.327-3.05 10.598 2.723 4.273 9.506 8.806 9.506 8.806s6.783-4.533 9.506-8.806c2.723-4.27 1.255-10.077-3.049-10.598"/>
        <path stroke="#454C53" stroke-width="5" d="M176.968 244.514a8.743 8.743 0 0 1-8.742 8.742h-42a8.743 8.743 0 0 1-8.742-8.742v-42a8.742 8.742 0 0 1 8.742-8.742h42a8.742 8.742 0 0 1 8.742 8.742v42z"/>
        <path fill="#0AA4C9" d="M193.898 249.547c0 4.828-3.954 8.743-8.832 8.743h-72.02c-4.878 0-8.832-3.915-8.832-8.743v-37.424c0-4.828 3.954-8.742 8.832-8.742h72.02c4.878 0 8.832 3.914 8.832 8.742v37.424z"/>
        <path fill="#FFF" d="M108.805 238.236c0-8.803 7.211-15.94 16.106-15.94 8.895 0 16.105 7.137 16.105 15.94 0 8.804-7.21 15.942-16.105 15.942s-16.106-7.138-16.106-15.942"/>
        <path fill="#6DCECD" d="M111.404 238.236c0-7.383 6.046-13.37 13.507-13.37 7.46 0 13.508 5.987 13.508 13.37 0 7.384-6.047 13.37-13.508 13.37-7.46 0-13.507-5.986-13.507-13.37"/>
        <path fill="#FFF" d="M185.697 212.075c0 1.185-1.279 1.373-2.856 1.373H114.78c-1.578 0-2.856-.188-2.856-1.373 0-1.183 1.278-1.373 2.856-1.373h68.062c1.577 0 2.856.19 2.856 1.373"/>
        <path fill="#454C53" d="M139.905 225.345h18.303v-6.406h-18.303z"/>
        <path fill="#FFBD09" d="M144.48 232.666h8.237v-3.66h-8.236zM144.48 239.987h8.237v-4.576h-8.236zM144.48 247.308h8.237v-6.406h-8.236zM144.48 253.714h8.237v-4.576h-8.236z"/>
        <path fill="#FF4D35" d="M181.129 333.719c-7.167-6.902-14.453-17.661-4-33.372 10.453-15.707 14.429-20.768-.835-15.763-15.263 5.005-27.411 34.09-29.954 46.142-2.544 12.05-12.822 20.887-23.145 25.453-16.402 7.257-39.088 29.723-2.109 58.775s50.128 12.313 57.302 1.58c7.172-10.73 3.5-32.5 21.6-40.314 18.099-7.814 29.237-21.992 8.877-17.71s-33.588-10.131-28.435-23.902"/>
        <path fill="#FFF" d="M166.514 385.175l-22.577-17.737 4.892-6.228 22.578 17.737zM157.37 396.813l-22.576-17.738 3.294-4.19 22.577 17.735z"/>
        <path fill="#8D4666" d="M139.992 410.922L125.2 399.301l7.95-10.12 14.793 11.62z"/>
        <path fill="#FFBD09" d="M156.342 408.894a2.585 2.585 0 1 1-.435-3.63 2.581 2.581 0 0 1 .435 3.63"/>
        <path fill="#FF4D35" d="M84.996 206.714a8.563 8.563 0 0 1-8.563 8.563H24.008a8.563 8.563 0 0 1-8.563-8.563V116.77a8.563 8.563 0 0 1 8.563-8.564h52.425a8.563 8.563 0 0 1 8.563 8.564v89.944z"/>
        <path fill="#8D4666" d="M16.245 202.495v4.282a8.563 8.563 0 0 0 8.564 8.564h52.242a8.564 8.564 0 0 0 8.564-8.564v-4.282h-69.37z"/>
        <path fill="#FFBD09" d="M20.375 161.814c0-16.403 13.296-29.7 29.7-29.7 16.403 0 29.7 13.297 29.7 29.7s-13.297 29.7-29.7 29.7c-16.404 0-29.7-13.297-29.7-29.7"/>
        <path fill="#0AA4C9" d="M23.801 161.814c0-14.51 11.764-26.275 26.274-26.275 14.511 0 26.275 11.764 26.275 26.275 0 14.51-11.764 26.274-26.275 26.274-14.51 0-26.274-11.763-26.274-26.274"/>
        <path fill="#FFF" d="M28.56 161.814c0-11.883 9.632-21.515 21.515-21.515 11.883 0 21.515 9.632 21.515 21.515 0 11.883-9.632 21.515-21.515 21.515-11.883 0-21.515-9.632-21.515-21.515"/>
        <path fill="#454C53" d="M40.14 161.814c0-5.486 4.447-9.934 9.935-9.934 5.487 0 9.935 4.448 9.935 9.934 0 5.486-4.448 9.933-9.935 9.933-5.488 0-9.934-4.447-9.934-9.933"/>
        <path fill="#8D4666" d="M34.664 122.849h29.284v-5.491H34.664z"/>
        <path fill="#FF4D35" d="M115.196 107.291h.915v-3.66h-.915zM133.499 74.29v-7.378c0-.993-2.746-1.818-2.746-2.432v4.173c1.83 1.279 2.746 3.223 2.746 5.638M113.366 145.644v23.294c0-.201.35-.312.894-.312.946 0 .936.337 1.85.9v-19.3c-.914-1.204-1.83-2.773-2.744-4.582M116.11 144.662v-30.965h-.914v25.229c0 2.15 0 4.125.915 5.736M115.196 99.97h.915v-3.66h-1.21c-.033 1.83.295 1.747.295 2.208v1.452zM115.23 90.819h.881v-14.78c0-5.111 4.386-9.093 9.496-9.093.657 0 1.486.065 2.4.189v-3.73c-.914-.107-1.65-.166-2.35-.166-3.71 0-7.176 1.522-9.513 3.982-.353 10.904-.683 19.798-.79 23.027-.012.36-.104.57-.124.57"/>
        <path fill="#FFBD09" d="M97.836 8.289c3.821 2.493 8.408 5.556 9.73 17.164 1.325 11.61 2.483 56.852 2.748 64.795.012.359.03.571.048.571h4.868c.02 0 .037-.212.048-.571.108-3.23.364-12.42.718-23.323.517-15.927 1.245-34.728 2.03-41.62 1.325-11.61 5.91-14.597 9.732-17.091 2.782-1.815 5.692-3.97 1.985-5.029-3.706-1.059-8.739-2.365-16.946-2.63-8.207.265-13.24 1.597-16.946 2.657-3.708 1.058-.798 3.262 1.985 5.077M112.45 107.291h2.746v-3.66h-2.745zM115.196 99.97v-1.452c0-.46-.328-.378-.296-2.209h-4.209c.03 0 1.76 1.657 1.76 2.066v1.595h2.745zM128.008 107.291h2.746v-3.66h-2.746zM133.499 99.97h4.576v-3.66h-4.576zM128.008 99.97h2.746v-3.66h-2.746zM133.499 107.291h4.576v-3.66h-4.576zM133.499 113.697v13.858c0 .95-.422 1.719-1.373 1.719-.95 0-1.373-.77-1.373-1.719v-13.858h-2.745v13.59c0 2.998 1.836 4.713 4.833 4.713h.037c.703 0 .62.577 1.536.334v6.592c0 5.475-4.36 10.462-9.834 10.462h-.265c-3.325 0-5.914-1.927-7.6-4.417-1.088-1.612-1.52-3.896-1.52-6.045v-25.229h-2.745v25.229c0 2.418-.208 4.715.888 6.718.99 1.81 1.946 3.51 3.597 4.715 2.199 1.603 4.466 2.69 7.38 2.69h.265c7.518 0 13.494-6.604 13.494-14.123v-25.229H133.5zM128.008 90.819h2.745V61.04c0-.95.424-1.72 1.373-1.72.95 0 1.373.77 1.373 1.72v29.778h4.575V60.735c0-2.997-2.198-6.522-5.195-6.522h-.037c-2.998 0-4.834 3.525-4.834 6.522V90.82z"/>
        <path fill="#8D4666" d="M104.214 110.037v-2.746h-3.66v6.406h3.66v-2.745h2.746v-.915z"/>
        <path fill="#6DCECD" d="M134.293 107.291H106.96v6.406h41.181v-6.406h-9.835z"/>
        <path fill="#8D4666" d="M104.214 100.885v-.915h-3.66v3.66H106.96v-2.745z"/>
        <path fill="#6DCECD" d="M134.293 99.97H106.96v4.075-.414h41.181V99.97h-9.835z"/>
        <path fill="#8D4666" d="M104.214 94.48v-3.661h-3.66v5.49h3.66v-.915h2.746v-.915z"/>
        <path fill="#6DCECD" d="M134.293 90.819H106.96v5.49h41.181v-5.49h-9.835z"/>
        <path fill="#8D4666" d="M112.505 168.938a3.883 3.883 0 0 0-2.15 4.814c-.434.313-.717.35-.717.924 0 .95.77 1.251 1.72 1.251h5.734c.95 0 1.72-.3 1.72-1.251 0-.711-.431-1.084-1.044-1.348.094-.335.148-.571.148-.936 0-1.2-.544-2.214-1.398-2.926-.675-.562-1.54-.87-2.486-.87-.542 0-1.06.14-1.527.342"/>
    </g>
</svg>
