<svg xmlns="http://www.w3.org/2000/svg" width="62.482" height="58.577" viewBox="0 0 62.482 58.577">
  <g id="movie_interview" data-name="movie interview" transform="translate(0 0)">
    <path id="Path_8" data-name="Path 8" d="M61.826,14.783a1.221,1.221,0,0,0-1.263.082l-10.18,7.1H47.106v-1.22a3.665,3.665,0,0,0-3.661-3.661H38.909A9.759,9.759,0,1,0,23.919,5.043,9.759,9.759,0,1,0,8.929,17.085H3.661A3.665,3.665,0,0,0,0,20.746V42.713a3.665,3.665,0,0,0,3.661,3.661H10.5v3.661a1.22,1.22,0,0,0,1.22,1.22h3.661v6.1a1.22,1.22,0,0,0,1.22,1.22H31.241a1.22,1.22,0,0,0,1.22-1.22v-6.1h3.661a1.22,1.22,0,0,0,1.22-1.22V46.374h6.1a3.665,3.665,0,0,0,3.661-3.661V39.052h3.277l10.18,7.1a1.22,1.22,0,0,0,1.919-1V15.865a1.221,1.221,0,0,0-.656-1.082ZM32.462,2.441a7.322,7.322,0,1,1-7.322,7.322A7.33,7.33,0,0,1,32.462,2.441ZM26.014,17.085H21.823a9.822,9.822,0,0,0,2.1-2.6,9.83,9.83,0,0,0,2.1,2.6ZM8.054,9.763a7.322,7.322,0,1,1,7.322,7.322A7.33,7.33,0,0,1,8.054,9.763ZM30.021,56.137h-12.2V51.255h12.2ZM34.9,48.815H12.936V46.374H34.9Zm9.763-6.1a1.221,1.221,0,0,1-1.22,1.22H3.661a1.221,1.221,0,0,1-1.22-1.22V20.746a1.222,1.222,0,0,1,1.22-1.22H43.445a1.222,1.222,0,0,1,1.22,1.22Zm2.441-18.305h2.441v12.2H47.106ZM60.042,42.814l-8.054-5.619V23.824L60.042,18.2Zm0,0" fill="#172832"/>
    <path id="Path_9" data-name="Path 9" d="M99.661,50a3.661,3.661,0,1,0,3.661,3.661A3.665,3.665,0,0,0,99.661,50Zm0,4.881a1.22,1.22,0,1,1,1.22-1.22A1.221,1.221,0,0,1,99.661,54.881Zm0,0" transform="translate(-84.285 -43.898)" fill="#172832"/>
    <path id="Path_10" data-name="Path 10" d="M239.661,57.322A3.661,3.661,0,1,0,236,53.661,3.665,3.665,0,0,0,239.661,57.322Zm0-4.881a1.22,1.22,0,1,1-1.22,1.22A1.222,1.222,0,0,1,239.661,52.441Zm0,0" transform="translate(-207.2 -43.898)" fill="#172832"/>
    <path id="Path_11" data-name="Path 11" d="M85.526,208.543V201.22a1.22,1.22,0,0,0-1.22-1.22H67.22A1.22,1.22,0,0,0,66,201.22v7.322a1.22,1.22,0,0,0,1.22,1.22H84.305A1.22,1.22,0,0,0,85.526,208.543Zm-2.441-1.22H68.441v-4.881H83.085Zm0,0" transform="translate(-57.946 -173.593)" fill="#cf4347"/>
  </g>
</svg>
