<svg xmlns="http://www.w3.org/2000/svg" width="90" height="90" viewBox="0 0 90 90">
    <g fill="none" fill-rule="nonzero">
        <path fill="#FFF" d="M45 0c24.853 0 45 20.147 45 45S69.853 90 45 90 0 69.853 0 45 20.147 0 45 0z"/>
        <path fill="#231F20" d="M16.716 16.716a40 40 0 1 0 56.568 0c-15.62-15.62-40.947-15.62-56.568 0zm27.6 27.6a.966.966 0 1 1 1.366 1.364.966.966 0 0 1-1.366-1.363v-.001z"/>
        <path fill="#414042" d="M72.259 72.259c-15.055 15.055-39.463 15.055-54.518 0s-15.055-39.463 0-54.518 39.463-15.055 54.518 0c15.031 15.065 15.031 39.453 0 54.518zM17.881 17.881a38.353 38.353 0 1 0 54.239 0C57.132 2.928 32.869 2.928 17.88 17.88l.001.001zm27.862 27.862a1.051 1.051 0 1 1-1.487-1.486 1.051 1.051 0 0 1 1.487 1.486zm-1.347-1.347a.854.854 0 1 0 1.207 1.208.854.854 0 0 0-1.207-1.208z"/>
        <path fill="#414042" d="M71.581 71.581a37.591 37.591 0 1 1 0-53.161c14.657 14.69 14.657 38.471 0 53.161zM18.557 18.558a37.4 37.4 0 1 0 52.885 0c-14.614-14.58-38.271-14.58-52.885 0zm27.179 27.178a1.041 1.041 0 1 1-1.472-1.472 1.041 1.041 0 0 1 1.472 1.472zm-1.334-1.334a.845.845 0 1 0 1.2 1.19.845.845 0 0 0-1.2-1.19z"/>
        <path fill="#414042" d="M70.902 70.902a36.632 36.632 0 1 1 0-51.805c14.283 14.315 14.283 37.49 0 51.805zM19.234 19.234c-14.23 14.23-14.23 37.301 0 51.53 14.23 14.23 37.302 14.23 51.531 0 14.23-14.229 14.23-37.3.001-51.53-14.24-14.207-37.292-14.207-51.532 0zm26.494 26.494a1.03 1.03 0 1 1-1.456-1.457 1.03 1.03 0 0 1 1.456 1.457zm-1.32-1.32a.837.837 0 1 0 1.184 1.183.837.837 0 0 0-1.184-1.183z"/>
        <path fill="#414042" d="M70.224 70.225a35.673 35.673 0 1 1 0-50.449c13.909 13.94 13.909 36.509 0 50.449zM19.91 19.911a35.482 35.482 0 1 0 50.179 0c-13.866-13.834-36.312-13.834-50.178 0h-.001zm25.81 25.81a1.019 1.019 0 1 1 0-1.442c.4.397.4 1.043.004 1.442h-.004zm-1.306-1.306a.828.828 0 1 0 1.169 1.17.828.828 0 0 0-1.168-1.17h-.001z"/>
        <path fill="#414042" d="M69.546 69.546a34.714 34.714 0 1 1 0-49.093c13.535 13.566 13.535 35.527 0 49.093zM20.587 20.587a34.525 34.525 0 1 0 48.825 0c-13.492-13.46-35.333-13.46-48.825 0zm25.125 25.126a1.008 1.008 0 1 1-1.425-1.424 1.008 1.008 0 0 1 1.425 1.423v.001zm-1.292-1.292a.819.819 0 1 0 1.158 1.16.819.819 0 0 0-1.158-1.161v.001z"/>
        <path fill="#414042" d="M68.868 68.868c-13.182 13.182-34.555 13.182-47.737 0-13.182-13.182-13.182-34.555 0-47.737 13.182-13.182 34.555-13.182 47.737 0 13.16 13.191 13.16 34.546 0 47.737zm-47.6-47.6a33.568 33.568 0 1 0 47.472 0C55.623 8.176 34.383 8.174 21.264 21.264l.004.004zm24.441 24.441a1 1 0 1 1 0-1.409 1 1 0 0 1-.005 1.404l.005.005zm-1.277-1.277a.81.81 0 1 0 1.145 0 .811.811 0 0 0-1.15-.005l.005.005z"/>
        <path fill="#414042" d="M68.191 68.19a32.8 32.8 0 1 1 0-46.381c12.787 12.816 12.787 33.565 0 46.381zm-46.25-46.25c-12.735 12.736-12.735 33.383 0 46.119 12.736 12.735 33.384 12.735 46.12 0 12.735-12.736 12.735-33.383 0-46.119-12.744-12.716-33.377-12.716-46.121 0h.001zm23.756 23.756a.985.985 0 1 1-1.391-1.393.985.985 0 0 1 1.39 1.393h.001zm-1.262-1.262a.8.8 0 1 0 1.133 1.132.8.8 0 0 0-1.134-1.132h.001z"/>
        <path fill="#414042" d="M67.512 67.512c-12.433 12.433-32.591 12.433-45.024 0-12.433-12.434-12.433-32.591 0-45.025 12.433-12.433 32.59-12.433 45.024 0 12.414 12.441 12.414 32.584 0 45.025zm-44.9-44.9c-12.362 12.362-12.362 32.405 0 44.767 12.362 12.362 32.405 12.362 44.767 0 12.362-12.362 12.362-32.405 0-44.767-12.37-12.338-32.394-12.337-44.763.004l-.004-.004zm23.071 23.071a.972.972 0 1 1 0-1.375.973.973 0 0 1 .004 1.379l-.004-.004zm-1.246-1.246a.79.79 0 1 0 1.117 0 .791.791 0 0 0-1.113.004l-.004-.004z"/>
        <path fill="#414042" d="M66.834 66.834a30.878 30.878 0 1 1 0-43.668c12.04 12.067 12.04 31.601 0 43.668zM23.293 23.293a30.7 30.7 0 1 0 43.414 0c-11.996-11.97-31.418-11.97-43.414 0zm22.385 22.385a.96.96 0 1 1-1.36-1.359.96.96 0 0 1 1.361 1.36l-.001-.001zm-1.23-1.23a.78.78 0 1 0 1.098 1.104.78.78 0 0 0-1.097-1.103l-.001-.001z"/>
        <path fill="#414042" d="M66.156 66.156c-11.684 11.684-30.628 11.684-42.312 0-11.684-11.684-11.684-30.628 0-42.312 11.684-11.684 30.628-11.684 42.312 0 11.665 11.692 11.665 30.62 0 42.312zM23.97 23.97a29.742 29.742 0 1 0 42.061 0c-11.623-11.596-30.438-11.596-42.061 0zm21.7 21.7a.946.946 0 1 1-1.336-1.338.946.946 0 0 1 1.335 1.338h.001zm-1.213-1.213a.769.769 0 1 0 1.087 1.09.769.769 0 0 0-1.087-1.091v.001z"/>
        <path fill="#414042" d="M65.478 65.478a28.961 28.961 0 1 1 0-40.956c11.291 11.317 11.291 29.639 0 40.956zM24.645 24.645c-11.24 11.241-11.24 29.467 0 40.708 11.242 11.24 29.467 11.24 40.708 0 11.242-11.241 11.242-29.467.001-40.708-11.249-11.223-29.46-11.223-40.708 0h-.001zm21.014 21.014a.933.933 0 1 1-1.32-1.319.933.933 0 0 1 1.32 1.319zm-1.2-1.2a.758.758 0 1 0 1.072 0 .759.759 0 0 0-1.067.005l-.005-.005z"/>
        <path fill="#414042" d="M64.8 64.8c-10.935 10.934-28.663 10.933-39.597-.001-10.935-10.935-10.935-28.663 0-39.598C36.137 14.267 53.865 14.266 64.8 25.2c10.917 10.943 10.917 28.657 0 39.6zM25.322 25.322c-10.868 10.868-10.867 28.488 0 39.356 10.868 10.868 28.489 10.868 39.356 0 10.868-10.868 10.869-28.488.001-39.356-10.875-10.85-28.482-10.85-39.357 0zM45.65 45.649a.918.918 0 1 1-1.294-1.3.918.918 0 0 1 1.293 1.3h.001zm-1.177-1.177a.746.746 0 1 0 1.057 1.055.746.746 0 0 0-1.058-1.055h.001z"/>
        <path fill="#414042" d="M64.122 64.121a27.043 27.043 0 1 1 0-38.244c10.544 10.568 10.544 27.676 0 38.244zM25.998 25.997a26.873 26.873 0 1 0 38 0c-10.5-10.477-27.5-10.476-38 .001v-.001zm19.641 19.641a.9.9 0 1 1-1.268-1.28.9.9 0 0 1 1.268 1.281v-.001zm-1.158-1.158a.734.734 0 1 0 .516-.216.736.736 0 0 0-.521.217l.005-.001z"/>
        <path fill="#414042" d="M63.444 63.444a26.084 26.084 0 1 1 0-36.888c10.17 10.193 10.17 26.695 0 36.888zm-36.77-36.77a25.917 25.917 0 1 0 36.652 0c-10.128-10.105-26.524-10.105-36.652 0zm18.954 18.954a.888.888 0 1 1-1.256-1.256.888.888 0 0 1 1.256 1.256zM44.49 44.49a.722.722 0 1 0 1.02 1.022.722.722 0 0 0-1.02-1.022z"/>
        <path fill="#414042" d="M62.766 62.765a25.125 25.125 0 1 1 0-35.532c9.796 9.818 9.796 25.714 0 35.532zM27.35 27.349a24.961 24.961 0 1 0 35.3 0c-9.754-9.733-25.547-9.733-35.301 0h.001zm18.267 18.267a.872.872 0 1 1-1.23-1.234.872.872 0 0 1 1.229 1.234h.001zm-1.118-1.118a.709.709 0 1 0 1.002 1.005.709.709 0 0 0-1.003-1.005h.001z"/>
        <path fill="#414042" d="M62.087 62.088c-9.437 9.437-24.738 9.437-34.176 0-9.437-9.437-9.437-24.739 0-34.176 9.438-9.437 24.739-9.437 34.176 0 9.423 9.444 9.423 24.732 0 34.176zm-34.06-34.063c-9.374 9.375-9.374 24.574 0 33.948 9.375 9.374 24.574 9.374 33.948 0 9.375-9.374 9.375-24.573.001-33.948-9.381-9.36-24.568-9.36-33.949 0zm17.579 17.579a.856.856 0 1 1 .25-.604c0 .227-.09.445-.251.605l.001-.001zm-1.1-1.1a.7.7 0 1 0 .983 0 .7.7 0 0 0-.981.004l-.002-.004z"/>
        <path fill="#414042" d="M61.41 61.41a23.207 23.207 0 1 1 0-32.819c9.048 9.069 9.048 23.75 0 32.819zM28.702 28.702c-9 9.002-9 23.596.002 32.597 9.001 9 23.595 9 32.596 0 9.002-9.001 9.003-23.595.002-32.597-9.008-8.99-23.593-8.99-32.601 0h.001zm16.891 16.891a.838.838 0 1 1-1.184-1.186.838.838 0 0 1 1.184 1.186zm-1.075-1.075a.681.681 0 1 0 .963.963.681.681 0 0 0-.963-.963z"/>
        <path fill="#414042" d="M60.732 60.731c-8.688 8.688-22.775 8.688-31.463 0-8.688-8.689-8.688-22.775 0-31.464 8.688-8.688 22.775-8.688 31.463 0 8.675 8.694 8.675 22.77 0 31.464zM29.377 29.376c-8.628 8.628-8.628 22.617 0 31.246 8.628 8.628 22.618 8.628 31.246 0 8.628-8.629 8.628-22.618 0-31.246-8.634-8.614-22.612-8.614-31.246.001v-.001zm16.2 16.2a.82.82 0 1 1 0-1.16.821.821 0 0 1 .003 1.164l-.003-.004zm-1.052-1.052a.667.667 0 1 0 .943 0 .667.667 0 0 0-.939.004l-.004-.004z"/>
        <path fill="#414042" d="M60.054 60.054a21.289 21.289 0 1 1 0-30.107c8.3 8.32 8.3 21.787 0 30.107zm-30-30a21.139 21.139 0 1 0 29.895 0c-8.26-8.243-21.635-8.243-29.896-.001l.001.001zm15.514 15.514a.8.8 0 1 1-1.127-1.132.8.8 0 0 1 1.126 1.131l.001.001zM44.54 44.54a.651.651 0 1 0 .923.922.651.651 0 0 0-.924-.923l.001.001z"/>
        <path fill="#414042" d="M59.375 59.376c-7.94 7.94-20.812 7.94-28.75 0-7.94-7.94-7.94-20.812 0-28.751 7.938-7.94 20.81-7.94 28.75 0 7.927 7.945 7.927 20.806 0 28.751zM30.727 30.728a20.184 20.184 0 1 0 28.544 0c-7.888-7.87-20.656-7.87-28.544 0zm14.825 14.825a.782.782 0 1 1-1.108-1.106.782.782 0 0 1 1.109 1.106h-.001zm-1-1a.636.636 0 1 0 .45-.189.636.636 0 0 0-.452.187l.002.002z"/>
        <path fill="#414042" d="M59.077 59.077a19.908 19.908 0 1 1 0-28.154c7.762 7.78 7.762 20.374 0 28.154zm-28.05-28.05a19.761 19.761 0 1 0 27.946 0c-7.722-7.704-20.224-7.704-27.946 0zm14.527 14.527a.783.783 0 1 1-1.106-1.107.783.783 0 0 1 1.105 1.107h.001zm-1-1a.636.636 0 1 0 .448-.188.637.637 0 0 0-.452.188h.004z"/>
        <path fill="#414042" d="M59.186 59.186c-7.835 7.835-20.537 7.835-28.372 0-7.835-7.835-7.835-20.537 0-28.372 7.835-7.835 20.537-7.835 28.372 0 7.822 7.84 7.822 20.532 0 28.372zM30.921 30.925a19.911 19.911 0 1 0 28.158 0c-7.78-7.763-20.377-7.763-28.158 0zM45.57 45.574a.807.807 0 1 1 .001-.003l-.001.003zm-1.034-1.034a.656.656 0 1 0 .001-.003l-.001.003z"/>
        <path fill="#414042" d="M58.508 58.508c-7.46 7.457-19.552 7.456-27.01-.003-7.458-7.459-7.458-19.551 0-27.01 7.458-7.459 19.55-7.46 27.01-.003 7.449 7.465 7.449 19.551 0 27.016zM31.597 31.597a18.956 18.956 0 1 0 26.807 0c-7.407-7.392-19.4-7.392-26.808-.001l.001.001zm13.96 13.959a.786.786 0 1 1-1.11-1.112.786.786 0 0 1 1.109 1.112h.001zm-1.008-1.008a.639.639 0 1 0 .9 0 .639.639 0 0 0-.901 0h.001z"/>
        <path fill="#414042" d="M57.83 57.83c-7.086 7.085-18.574 7.085-25.66 0-7.085-7.086-7.085-18.574 0-25.66 7.086-7.085 18.574-7.085 25.66 0 7.074 7.09 7.074 18.57 0 25.66zM32.272 32.272c-7.029 7.03-7.029 18.426 0 25.455 7.03 7.03 18.427 7.03 25.456 0 7.03-7.029 7.03-18.425.001-25.455-7.034-7.019-18.423-7.019-25.457 0zm13.269 13.269a.764.764 0 1 1-1.08-1.079.764.764 0 0 1 1.08 1.078v.001zm-.98-.98a.621.621 0 1 0 .878.878.621.621 0 0 0-.878-.878z"/>
        <path fill="#414042" d="M57.152 57.152a17.185 17.185 0 1 1 0-24.3c6.698 6.715 6.698 17.585 0 24.3zM32.947 32.947c-6.657 6.657-6.657 17.45 0 24.107 6.657 6.656 17.45 6.656 24.107 0 6.657-6.657 6.657-17.45 0-24.107-6.661-6.647-17.446-6.647-24.107 0zm12.578 12.578a.742.742 0 1 1-1.048-1.049.742.742 0 0 1 1.047 1.049h.001zm-.95-.95a.6.6 0 1 0 .425-.177.6.6 0 0 0-.426.178l.001-.001z"/>
        <path fill="#414042" d="M56.474 56.474c-6.337 6.336-16.61 6.336-22.947 0-6.336-6.337-6.336-16.61 0-22.947 6.337-6.337 16.61-6.337 22.947-.001 6.327 6.341 6.327 16.607 0 22.948zM33.622 33.622a16.092 16.092 0 1 0 22.757 0c-6.288-6.274-16.468-6.275-22.757-.001v.001zm11.886 11.886a.718.718 0 1 1-1.016-1.013.718.718 0 0 1 1.016 1.012v.001zm-.92-.92a.583.583 0 1 0 0-.001v.001z"/>
        <path fill="#414042" d="M55.798 55.796c-5.962 5.962-15.629 5.962-21.59 0-5.963-5.962-5.963-15.629 0-21.59 5.961-5.963 15.628-5.963 21.59-.001 5.952 5.966 5.952 15.625 0 21.591zm-21.5-21.5a15.138 15.138 0 1 0 21.408 0c-5.916-5.902-15.492-5.902-21.408 0zm11.194 11.193a.692.692 0 1 1 0-.979c.27.271.27.71-.002.98l.002-.001zm-.888-.887a.563.563 0 1 0 .8 0 .563.563 0 0 0-.806 0h.006z"/>
        <path fill="#414042" d="M55.117 55.117c-5.588 5.587-14.647 5.587-20.234 0-5.588-5.588-5.588-14.647 0-20.235 5.587-5.587 14.646-5.587 20.234 0 5.579 5.592 5.579 14.643 0 20.235zM34.97 34.97a14.184 14.184 0 1 0 20.059 0c-5.543-5.53-14.516-5.53-20.059 0zm10.5 10.5a.666.666 0 1 1 .001 0h-.001zm-.854-.854a.541.541 0 1 0 .763.763.541.541 0 0 0-.762-.762l-.001-.001z"/>
        <path fill="#CF4347" d="M29.516 29.514c-8.79 8.79-8.79 23.043 0 31.834 8.79 8.79 23.043 8.79 31.834 0 8.79-8.79 8.79-23.043 0-31.834-8.796-8.778-23.038-8.778-31.834 0zm14.905 14.905a1.431 1.431 0 1 1 2.024 2.023 1.431 1.431 0 0 1-2.024-2.023z"/>
        <path fill="#231F20" d="M41.384 41.384a5.114 5.114 0 1 0 7.233 0 5.121 5.121 0 0 0-7.233 0zm4.708 4.708a1.544 1.544 0 1 1-2.183-2.182 1.544 1.544 0 0 1 2.183 2.181v.001z"/>
        <path fill="#FFF" stroke="#FFF" stroke-linecap="round" stroke-linejoin="round" stroke-width="2" d="M40.5 55.499v-20l15.652 10.117z"/>
    </g>
</svg>
