<svg xmlns="http://www.w3.org/2000/svg" width="48" height="48" viewBox="0 0 48 48">
    <g fill="none" fill-rule="nonzero">
        <path stroke="#FFF" stroke-width="2" d="M23.994 46.989C13.054 46.982 3.632 39.273 1.46 28.55-.712 17.829 4.967 7.06 15.041 2.797c11.696-4.906 25.156.579 30.091 12.262 4.936 11.683-.515 25.157-12.185 30.122a22.857 22.857 0 0 1-8.953 1.808z"/>
        <path fill="#FFF" d="M17.852 14.039a1.15 1.15 0 0 0-1.15 1.15v17.595a1.15 1.15 0 0 0 1.664 1.027l17.595-8.798a1.15 1.15 0 0 0 0-2.057L18.366 14.16c-.16-.08-.336-.12-.514-.12z"/>
    </g>
</svg>
