<?xml version="1.0" encoding="utf-8"?>
<!-- Generator: Adobe Illustrator 18.0.0, SVG Export Plug-In . SVG Version: 6.00 Build 0)  -->
<!DOCTYPE svg PUBLIC "-//W3C//DTD SVG 1.1//EN" "http://www.w3.org/Graphics/SVG/1.1/DTD/svg11.dtd">
<svg version="1.1" id="Layer_1" xmlns="http://www.w3.org/2000/svg" xmlns:xlink="http://www.w3.org/1999/xlink" x="0px" y="0px"
	 viewBox="0 0 418.5 206.9" enable-background="new 0 0 418.5 206.9" xml:space="preserve">
<circle fill="#B7F8FD" cx="253" cy="97" r="5.7"/>
<path fill="#FFFFFF" d="M-607.5,19.6c-3.5-4.1-6.5-7.6-10.1-11.7c1.3-1.1,2.4-2,4.1-3.5c2.2,2.8,4.1,5.3,6.2,8
	c6.9-5.6,13-10.7,19.5-16c1.2,1.3,2.2,2.4,3.6,3.9C-592,6.8-599.5,13-607.5,19.6z"/>
<rect x="22.9" y="22.7" fill="#FFCD6E" width="9" height="9"/>
<rect x="53.1" y="85.8" fill="#FFCD6E" width="4.9" height="4.9"/>
<rect x="90.9" y="110.8" fill="#FFCD6E" width="7" height="7"/>
<rect x="91.9" y="173" fill="#FFCD6E" width="7" height="7"/>
<path fill="#B7F8FD" d="M135.9,163.4L135.9,163.4c-5.3,0-9.5-4.3-9.5-9.5v0c0-5.3,4.3-9.5,9.5-9.5h0c5.3,0,9.5,4.3,9.5,9.5v0
	C145.4,159.1,141.2,163.4,135.9,163.4z"/>
<path fill="#B7F8FD" d="M286.9,87.7L286.9,87.7c-5.3,0-9.5-4.3-9.5-9.5v0c0-5.3,4.3-9.5,9.5-9.5h0c5.3,0,9.5,4.3,9.5,9.5v0
	C296.4,83.4,292.2,87.7,286.9,87.7z"/>
<rect x="165.4" y="113.3" fill="#FFCD6E" width="5.8" height="5.8"/>
<rect x="179.6" y="62.8" fill="#FFCD6E" width="5.7" height="5.7"/>
<rect x="246.7" y="38.4" fill="#FFCD6E" width="5.7" height="5.7"/>
<rect x="323.7" y="97.6" fill="#FFCD6E" width="7.6" height="7.6"/>
<rect x="391.1" y="99" fill="#FFCD6E" width="8.2" height="8.2"/>
<rect x="323.4" y="185.7" fill="#FFCD6E" width="8.2" height="8.2"/>
<rect x="365.4" y="161.4" fill="#FFCD6E" width="4.4" height="4.4"/>
<circle fill="#B7F8FD" cx="16.9" cy="106.1" r="5.7"/>
<circle fill="#B7F8FD" cx="404.9" cy="180" r="5.7"/>
<circle fill="#B7F8FD" cx="164.7" cy="22.7" r="5.7"/>
<rect x="97.6" y="56.9" transform="matrix(0.7071 0.7071 -0.7071 0.7071 74.0852 -54.5401)" fill="#FFA79F" width="10.5" height="10.5"/>
<rect x="314.8" y="131.7" transform="matrix(0.7071 0.7071 -0.7071 0.7071 190.5556 -186.2246)" fill="#FFA79F" width="10.5" height="10.5"/>
<rect x="119.2" y="93.9" transform="matrix(0.7071 0.7071 -0.7071 0.7071 107.4247 -59.3462)" fill="#FFA79F" width="12.3" height="12.3"/>
<rect x="291.3" y="17.5" transform="matrix(0.7071 0.7071 -0.7071 0.7071 103.8509 -203.385)" fill="#FFA79F" width="12.3" height="12.3"/>
<circle fill="#FCDEDE" cx="209.2" cy="103.5" r="43.9"/>
<path fill="#E13241" d="M242.6,102.8c0.1,18.6-14.6,33.4-33.1,33.5c-18.3,0.1-33.5-15-33.6-33.3c-0.1-18.1,15.3-33.6,33.4-33.7
	C227.5,69.2,242.6,84.4,242.6,102.8z"/>
<path fill="#FFFFFF" d="M202.8,116c8-6.6,15.5-12.9,23.4-19.4c-1.3-1.5-2.4-2.6-3.6-3.9c-6.5,5.4-12.7,10.4-19.5,16
	c-2.1-2.7-4-5.1-6.2-8c-1.7,1.5-2.8,2.4-4.1,3.5C196.3,108.4,199.3,111.9,202.8,116z"/>
</svg>
